<?xml version="1.0" standalone="no"?>
<!DOCTYPE svg PUBLIC "-//W3C//DTD SVG 20010904//EN"
 "http://www.w3.org/TR/2001/REC-SVG-20010904/DTD/svg10.dtd">
<svg version="1.0" xmlns="http://www.w3.org/2000/svg"
 width="924.000000pt" height="924.000000pt" viewBox="0 0 924.000000 924.000000"
 preserveAspectRatio="xMidYMid meet">
<metadata>
Created by potrace 1.11, written by Peter Selinger 2001-2013
</metadata>
<g transform="translate(0.000000,924.000000) scale(0.100000,-0.100000)"
fill="#000000" stroke="none">
<path d="M2014 8716 c-3 -8 -12 -12 -20 -9 -8 3 -14 0 -14 -7 0 -6 -4 -8 -10
-5 -5 3 -10 1 -10 -5 0 -6 -4 -9 -8 -6 -5 3 -15 -4 -22 -15 -8 -10 -20 -19
-27 -19 -7 0 -13 -7 -13 -15 0 -8 -4 -15 -9 -15 -7 0 -29 -43 -35 -70 -1 -3
-4 -9 -7 -15 -11 -21 -10 -77 1 -91 10 -11 10 -14 -1 -14 -10 0 -10 -3 -1 -12
7 -7 12 -20 12 -30 0 -10 5 -18 10 -18 6 0 10 -7 10 -15 0 -7 8 -19 18 -24 9
-6 13 -11 9 -11 -4 0 -2 -6 5 -14 7 -8 16 -12 21 -9 4 2 7 -2 7 -10 0 -13 16
-22 57 -32 6 -2 27 -8 45 -14 19 -6 49 -9 68 -6 19 3 41 6 48 7 6 1 12 5 12
10 0 5 4 7 9 3 5 -3 16 1 24 9 8 8 17 12 21 9 3 -4 6 -1 6 5 0 7 7 12 16 12 8
0 12 5 9 10 -3 6 -2 10 4 10 6 0 24 24 41 53 31 54 37 73 20 62 -6 -3 -7 1 -4
9 3 9 9 16 14 16 9 0 6 57 -5 85 -4 11 -11 32 -17 48 -6 15 -14 27 -19 27 -5
0 -9 6 -9 13 0 14 -35 47 -50 47 -6 0 -10 3 -10 8 0 4 -9 13 -21 20 -12 8 -18
9 -15 4 3 -6 -5 -5 -18 1 -13 7 -23 14 -21 17 7 12 -88 10 -103 -2 -12 -10
-14 -10 -8 0 4 6 5 12 1 12 -3 0 -8 -6 -11 -14z"/>
<path d="M7847 8702 c-9 -2 -15 -8 -12 -13 4 -5 -1 -9 -9 -9 -9 0 -16 -4 -16
-10 0 -5 -5 -10 -11 -10 -12 0 -52 -41 -84 -86 -11 -16 -27 -35 -35 -44 -15
-17 -19 -26 -26 -70 -3 -14 -9 -37 -15 -52 -6 -15 -8 -32 -4 -37 3 -6 2 -11
-2 -11 -5 0 -9 -8 -10 -17 0 -10 -4 -29 -8 -43 -4 -14 -7 -37 -8 -52 0 -16 -5
-28 -10 -28 -5 0 -4 -6 2 -14 9 -10 9 -16 1 -21 -8 -5 -8 -11 1 -21 6 -8 8
-14 4 -14 -4 0 -1 -8 6 -17 8 -9 9 -14 3 -11 -11 8 -12 -81 0 -101 4 -6 2 -11
-4 -11 -6 0 -9 -4 -6 -8 3 -5 6 -36 7 -71 1 -34 6 -64 11 -67 4 -3 4 -14 -2
-24 -6 -12 -6 -20 0 -22 6 -2 11 -22 13 -46 1 -23 6 -42 11 -42 4 0 6 -9 3
-20 -3 -11 -1 -20 3 -20 4 0 6 -9 3 -20 -3 -13 0 -20 8 -20 10 0 10 -3 1 -12
-9 -9 -8 -16 5 -30 9 -10 11 -18 5 -18 -7 0 -8 -10 -2 -29 4 -16 6 -32 2 -35
-3 -3 -1 -6 4 -6 10 0 15 -26 17 -87 1 -17 4 -30 8 -28 3 3 7 -10 7 -28 3 -44
6 -60 16 -76 7 -11 6 -12 -5 -6 -11 7 -12 6 -3 -6 6 -8 12 -36 13 -64 2 -27 6
-52 9 -55 4 -3 8 -27 10 -55 3 -63 5 -77 16 -94 7 -10 6 -12 -4 -6 -9 6 -11 4
-5 -5 4 -7 9 -25 11 -39 10 -82 13 -104 18 -108 2 -3 1 -16 -4 -29 -7 -17 -6
-24 3 -24 8 0 7 -4 -3 -10 -8 -5 -10 -10 -5 -10 6 0 11 -58 12 -148 2 -81 4
-166 6 -189 1 -24 0 -43 -3 -43 -3 0 -6 -19 -7 -42 -2 -50 -10 -123 -13 -123
-1 0 -2 -20 -3 -45 -1 -25 -6 -50 -10 -57 -4 -6 -1 -13 5 -16 10 -3 10 -7 2
-18 -10 -12 -21 -57 -25 -94 0 -5 -7 -25 -15 -43 -10 -24 -10 -31 -1 -25 9 5
9 3 1 -8 -13 -16 -32 -80 -36 -121 -1 -10 -7 -18 -12 -18 -5 0 -6 -3 -3 -7 4
-3 -1 -15 -10 -26 -13 -15 -14 -18 -3 -12 13 8 13 7 1 -8 -7 -9 -10 -17 -7
-17 4 0 1 -10 -6 -22 -6 -13 -14 -30 -15 -38 -7 -29 -11 -45 -14 -45 -1 0 -3
-10 -4 -21 -1 -12 -5 -33 -9 -48 -6 -24 -5 -26 12 -17 11 6 22 7 26 4 3 -3 6
-1 6 5 0 7 9 12 21 12 11 0 18 4 14 9 -3 5 4 12 15 16 11 3 20 10 20 15 0 5
20 31 44 57 80 86 139 160 135 166 -2 3 7 14 21 26 14 11 22 20 18 21 -5 0 0
8 10 18 9 11 21 17 26 14 5 -3 7 1 4 9 -2 7 7 24 20 36 14 13 21 23 16 23 -5
0 -1 6 8 13 9 8 18 19 20 27 2 7 10 21 18 31 35 41 40 49 34 49 -4 0 2 9 14
20 12 12 22 27 22 35 0 8 8 19 18 24 10 5 18 19 19 32 1 12 6 25 11 28 5 3 12
18 16 34 3 15 11 27 16 27 6 0 10 5 10 11 0 5 -6 7 -12 4 -7 -4 -4 1 6 9 11 9
17 16 13 16 -4 0 0 11 9 25 9 14 13 25 9 25 -3 0 1 7 9 16 9 8 14 19 11 24 -3
5 -1 10 4 12 5 1 11 12 13 23 1 11 7 23 12 27 5 3 11 15 12 25 1 10 5 29 9 43
4 14 8 33 8 42 1 9 5 15 9 12 4 -2 7 4 7 13 1 39 5 53 13 53 4 0 7 3 6 8 -1 4
3 30 10 57 22 88 24 99 25 142 1 24 5 43 8 43 3 0 6 6 6 13 0 24 14 132 20
156 5 19 3 22 -8 16 -11 -7 -12 -6 -3 6 5 8 9 25 7 39 -2 14 -4 55 -6 91 -2
36 -7 71 -11 77 -4 7 -2 12 6 12 9 0 9 3 -2 10 -11 7 -11 10 -2 10 9 0 10 5 4
18 -5 9 -7 23 -4 31 3 10 0 11 -9 5 -12 -7 -12 -5 0 9 7 9 10 17 5 17 -5 0
-10 21 -12 47 -1 26 -6 50 -10 53 -4 3 -8 17 -9 33 -1 19 2 25 10 20 8 -4 8
-2 -1 9 -7 9 -15 29 -17 44 -6 46 -13 73 -21 86 -5 7 -3 8 5 3 10 -6 11 -3 3
11 -6 11 -12 33 -15 49 -3 17 -9 39 -13 49 -5 13 -4 17 4 12 7 -4 5 4 -3 21
-11 21 -12 30 -2 42 8 10 8 13 1 8 -13 -8 -29 56 -19 73 3 6 1 10 -5 10 -7 0
-10 7 -6 15 3 8 0 15 -7 15 -8 0 -6 4 3 10 11 7 12 10 2 10 -9 0 -11 7 -7 19
3 11 1 22 -5 26 -6 3 -8 10 -5 15 3 5 1 11 -4 15 -6 3 -8 12 -5 20 3 8 2 20
-2 27 -9 13 -12 26 -17 63 -2 12 -6 25 -9 30 -10 19 -26 87 -30 127 -1 15 -6
24 -10 22 -7 -5 -13 29 -8 51 1 6 -2 7 -6 3 -7 -7 -14 4 -51 75 -8 15 -19 27
-25 27 -6 0 -9 3 -5 6 3 3 -5 17 -19 31 -13 13 -24 27 -24 31 0 4 -18 18 -40
32 -22 14 -40 28 -40 32 0 7 -99 7 -133 0z"/>
<path d="M2688 8595 c-4 -4 -37 -12 -60 -14 -4 -1 -18 -12 -31 -25 -14 -14
-28 -22 -31 -19 -3 4 -7 1 -7 -5 -2 -15 -6 -31 -9 -34 -1 -2 -4 -12 -6 -23
-11 -45 -12 -65 -3 -65 6 0 7 -4 4 -10 -3 -5 -1 -10 5 -10 6 0 8 -5 5 -10 -6
-10 56 -80 72 -82 4 0 13 -2 18 -4 29 -8 75 -9 75 -2 0 5 4 7 9 3 5 -3 12 -1
16 5 4 6 9 9 13 7 11 -6 68 59 64 72 -2 6 0 11 5 11 5 0 10 16 11 37 2 20 6
41 9 46 4 6 1 7 -7 2 -10 -6 -12 -4 -7 9 4 10 3 15 -3 11 -6 -3 -10 0 -10 8 0
27 -60 79 -95 82 -5 0 -15 4 -21 7 -6 4 -13 5 -16 3z"/>
<path d="M3137 8525 c-20 -7 -39 -10 -43 -6 -4 3 -4 0 0 -6 4 -8 1 -13 -8 -13
-9 0 -16 -4 -16 -10 0 -5 -8 -19 -17 -30 -20 -23 -25 -96 -9 -125 17 -30 67
-76 77 -69 5 3 9 1 9 -4 0 -13 81 -12 98 1 6 5 12 6 12 2 0 -4 16 9 35 30 19
21 32 42 29 47 -3 4 -1 8 4 8 12 0 8 90 -4 99 -5 3 -10 13 -12 21 -2 8 -8 17
-13 18 -5 2 -15 9 -22 15 -7 7 -21 19 -31 27 -16 12 -18 12 -11 1 6 -11 5 -12
-6 -5 -21 13 -32 13 -72 -1z"/>
<path d="M1444 8487 c-11 -6 -22 -14 -25 -19 -3 -6 -10 -10 -15 -11 -5 -1 -8
-5 -6 -9 1 -5 -3 -8 -10 -8 -6 0 -8 -3 -5 -7 4 -3 3 -11 -3 -18 -21 -25 8
-114 40 -122 11 -3 20 -10 20 -15 0 -5 4 -7 9 -3 5 3 12 1 16 -4 4 -7 15 -7
30 -1 14 5 25 7 25 4 0 -3 14 4 30 16 17 12 30 28 30 36 0 8 5 14 11 14 5 0 7
5 4 10 -3 6 -1 10 5 10 6 0 8 4 5 10 -3 5 -8 20 -10 32 -7 34 -27 68 -41 68
-7 0 -14 5 -16 11 -5 14 -71 18 -94 6z"/>
<path d="M8865 8420 c-4 -6 -13 -9 -21 -6 -8 3 -14 1 -14 -4 0 -6 -5 -10 -11
-10 -15 0 -59 -47 -51 -55 3 -3 -3 -8 -14 -11 -12 -3 -32 -23 -45 -45 -13 -22
-32 -49 -41 -61 -10 -11 -20 -29 -23 -39 -4 -11 -11 -19 -16 -19 -5 0 -8 -3
-8 -7 3 -19 -2 -34 -9 -29 -4 2 -8 -10 -9 -27 -1 -46 -6 -77 -13 -77 -3 0 -6
-15 -7 -33 -1 -17 -5 -45 -8 -62 -7 -32 -9 -174 -5 -316 2 -48 0 -91 -4 -97
-3 -6 0 -13 6 -15 10 -4 10 -8 -1 -15 -8 -6 -9 -12 -3 -16 6 -3 8 -15 5 -27
-4 -12 0 -25 8 -30 8 -5 9 -9 3 -9 -12 0 -12 -135 -1 -147 4 -3 2 -12 -4 -20
-9 -10 -8 -13 1 -13 10 0 10 -4 -1 -16 -10 -13 -10 -17 2 -25 12 -7 12 -10 0
-18 -9 -6 -10 -10 -2 -16 9 -5 9 -10 1 -20 -8 -9 -8 -15 0 -20 5 -3 10 -11 10
-16 0 -6 -5 -7 -11 -3 -8 5 -8 1 0 -14 14 -27 14 -35 -1 -26 -10 6 -10 4 -2
-7 14 -19 9 -116 -7 -144 -4 -5 -5 -18 -4 -27 2 -10 0 -18 -4 -18 -4 0 -8 -6
-8 -12 0 -27 -26 -124 -37 -137 -9 -12 -8 -13 4 -6 12 6 13 5 3 -6 -7 -7 -13
-21 -13 -31 0 -10 -4 -18 -8 -18 -4 0 -8 -10 -9 -22 -1 -11 -8 -25 -15 -29
-10 -7 -10 -9 2 -9 11 0 11 -3 2 -12 -7 -7 -12 -20 -12 -30 0 -10 -5 -18 -12
-18 -6 0 -9 -3 -5 -6 3 -4 1 -21 -6 -38 -7 -17 -13 -38 -12 -46 0 -8 -4 -18
-10 -22 -5 -4 -10 -11 -11 -15 -1 -14 -39 -88 -46 -91 -5 -2 -8 -10 -8 -18 0
-8 -6 -17 -14 -20 -8 -3 -13 -11 -10 -18 2 -6 -5 -22 -16 -34 -11 -12 -17 -22
-13 -22 4 0 -1 -7 -11 -15 -11 -8 -17 -15 -13 -15 3 0 -8 -24 -25 -52 -17 -29
-41 -71 -52 -93 -12 -22 -24 -41 -28 -43 -5 -2 -8 -10 -8 -18 0 -8 -5 -14 -12
-14 -6 0 -9 -3 -6 -6 3 -3 -4 -15 -16 -28 -11 -12 -30 -35 -41 -51 -11 -16
-26 -34 -33 -42 -7 -7 -11 -13 -7 -13 4 0 0 -6 -7 -13 -7 -8 -22 -26 -33 -42
-11 -15 -28 -36 -37 -47 -10 -10 -15 -18 -11 -18 3 0 -4 -9 -17 -20 -13 -11
-19 -20 -14 -20 5 -1 -1 -9 -13 -19 -12 -10 -19 -21 -16 -25 3 -3 -2 -8 -11
-12 -9 -3 -16 -10 -16 -16 0 -5 -6 -15 -12 -22 -7 -8 -20 -24 -28 -36 -16 -25
-358 -367 -412 -412 -81 -69 -93 -78 -100 -78 -5 0 -8 -7 -8 -16 0 -8 -4 -13
-9 -9 -5 3 -21 -5 -34 -17 -29 -27 -61 -53 -106 -88 -18 -14 -44 -35 -57 -48
-13 -13 -24 -21 -24 -18 0 7 -49 -34 -79 -66 -14 -16 -30 -28 -36 -28 -5 0 -3
5 5 10 8 5 10 10 5 10 -6 0 -18 -9 -28 -20 -9 -11 -24 -20 -32 -20 -8 0 -15
-4 -15 -10 0 -5 -7 -10 -15 -10 -8 0 -15 -5 -15 -12 0 -6 -3 -8 -6 -5 -4 4
-19 -2 -33 -12 -52 -35 -139 -80 -145 -74 -3 4 -6 1 -6 -6 0 -7 -16 -19 -35
-27 -19 -8 -35 -19 -35 -25 0 -5 -4 -7 -10 -4 -5 3 -10 1 -10 -5 0 -6 -4 -8
-10 -5 -5 3 -10 1 -10 -5 0 -6 -4 -8 -10 -5 -5 3 -10 1 -10 -5 0 -6 -4 -9 -9
-5 -5 3 -12 1 -16 -5 -4 -6 -11 -8 -16 -5 -5 4 -9 2 -9 -2 0 -9 -72 -43 -90
-43 -6 0 -10 -4 -10 -10 0 -5 -9 -10 -19 -10 -11 0 -22 -4 -25 -9 -3 -5 -18
-12 -33 -16 -15 -3 -33 -14 -41 -23 -9 -11 -11 -12 -6 -2 7 13 5 13 -9 1 -9
-7 -17 -10 -17 -7 0 4 -7 0 -16 -8 -8 -9 -22 -16 -30 -16 -8 0 -14 -4 -14 -9
0 -6 -9 -8 -19 -6 -11 2 -25 -3 -32 -11 -6 -8 -17 -14 -25 -14 -7 0 -19 -7
-28 -15 -8 -9 -19 -15 -23 -15 -7 1 -37 -7 -53 -14 -39 -17 -62 -25 -68 -24
-4 1 -17 -4 -30 -11 -13 -7 -30 -10 -37 -7 -8 3 -17 1 -20 -4 -4 -6 -14 -7
-23 -2 -9 5 -36 7 -59 6 -24 -1 -45 2 -49 7 -3 5 -10 7 -15 4 -5 -4 -9 1 -9 9
0 9 -3 15 -7 15 -23 -4 -43 2 -43 13 0 6 -7 20 -17 30 -9 10 -18 28 -19 41 -6
38 -9 52 -18 65 -5 8 -3 11 5 10 9 -2 14 12 16 42 2 24 9 50 15 57 8 9 7 13
-2 13 -9 0 -10 3 -1 14 6 7 12 25 13 40 1 14 6 26 10 26 4 0 8 11 8 25 0 14 4
25 9 25 5 0 8 8 6 18 -1 9 2 25 7 35 5 10 12 31 14 45 3 15 9 31 15 38 5 6 6
14 2 17 -3 4 1 9 10 13 9 3 13 12 10 20 -3 8 0 14 6 14 6 0 11 5 11 11 0 5 -6
7 -12 3 -7 -4 -5 2 5 14 11 12 16 26 11 33 -4 8 -3 10 4 5 11 -6 16 6 13 27 0
4 4 7 9 7 5 0 9 3 8 8 -4 15 24 82 34 82 6 0 9 3 6 6 -3 3 4 32 17 65 13 32
20 59 17 59 -4 0 -1 4 7 9 8 5 16 19 18 32 2 12 8 28 14 35 6 7 8 17 5 22 -3
6 1 15 10 22 8 7 13 19 10 27 -3 8 2 13 12 13 13 0 14 2 4 9 -11 7 -11 11 2
24 9 8 16 20 16 25 0 5 8 27 17 48 9 22 18 42 19 47 1 4 3 9 4 12 1 3 3 10 4
15 0 6 8 15 16 20 13 9 13 10 0 10 -13 0 -13 1 0 10 8 5 11 10 7 10 -4 0 -2
10 5 23 7 12 11 28 10 35 -2 6 2 12 8 12 6 0 9 4 6 8 -3 5 2 21 10 37 8 16 16
36 17 44 1 9 6 22 10 29 5 6 6 12 3 12 -3 0 1 12 9 27 8 15 12 30 9 35 -3 4
-1 8 3 8 9 0 11 9 15 68 2 17 6 32 9 32 6 0 8 8 11 65 2 22 8 45 13 51 6 6 11
32 10 58 0 25 2 46 5 46 3 0 6 8 7 18 1 9 3 32 5 50 3 18 1 35 -4 38 -4 3 -4
13 2 23 5 10 7 21 4 24 -3 3 -7 30 -9 60 -1 31 -6 60 -10 66 -3 6 -1 11 6 11
8 0 8 4 1 13 -6 6 -9 29 -8 50 1 20 -2 37 -6 37 -4 0 -7 12 -7 28 0 39 -5 66
-13 72 -3 3 -9 19 -12 35 -13 70 -19 91 -30 104 -9 12 -8 13 3 7 8 -6 7 0 -4
18 -10 14 -13 26 -9 26 5 0 3 4 -4 9 -7 4 -14 18 -15 29 -1 12 -5 22 -9 22 -4
0 -8 7 -8 15 0 8 -4 15 -10 15 -5 0 -10 7 -10 15 0 8 -5 15 -10 15 -6 0 -9 3
-8 8 4 11 -28 53 -35 45 -4 -3 -7 1 -7 10 0 8 -9 19 -20 22 -11 3 -20 10 -20
15 0 4 -9 10 -20 13 -11 3 -20 1 -20 -5 0 -5 -6 -6 -12 -2 -36 22 -121 -9
-166 -61 -18 -19 -32 -32 -32 -28 0 9 -41 -67 -45 -82 -1 -5 -8 -23 -15 -40
-15 -34 -17 -42 -26 -105 -3 -25 -9 -47 -13 -50 -3 -3 -7 -14 -8 -25 -1 -11
-5 -33 -8 -50 -3 -16 -8 -48 -11 -70 -3 -22 -10 -42 -15 -43 -6 -3 -5 -10 2
-18 6 -8 7 -14 2 -14 -6 0 -10 -12 -11 -27 -1 -16 -4 -38 -7 -50 -12 -52 -15
-69 -17 -100 -1 -18 -5 -33 -8 -33 -3 0 -6 -16 -7 -36 0 -20 -7 -40 -14 -45
-13 -8 -5 -13 16 -9 5 1 2 -7 -6 -17 -10 -11 -16 -34 -15 -60 0 -23 -3 -41 -9
-40 -5 1 -9 -4 -7 -11 1 -7 -5 -26 -13 -42 -9 -17 -12 -30 -8 -30 5 0 2 -4 -5
-8 -7 -5 -14 -18 -16 -29 -3 -12 -11 -34 -20 -51 -8 -16 -12 -32 -9 -35 3 -4
-2 -9 -11 -13 -9 -3 -13 -10 -10 -15 8 -13 -48 -109 -60 -102 -5 4 -7 -1 -3
-11 4 -10 1 -19 -8 -22 -8 -4 -15 -12 -15 -20 0 -8 -5 -14 -11 -14 -5 0 -8 -4
-4 -9 3 -6 -3 -14 -12 -20 -10 -6 -15 -11 -11 -11 7 0 -11 -25 -39 -55 -7 -8
-13 -17 -13 -21 0 -4 -11 -17 -25 -30 -14 -13 -25 -25 -25 -28 0 -3 -12 -19
-27 -35 -16 -16 -39 -44 -53 -61 -39 -48 -93 -99 -112 -106 -10 -3 -18 -12
-18 -20 0 -8 -4 -13 -9 -11 -5 1 -23 -10 -40 -25 -17 -16 -36 -28 -42 -28 -5
0 -7 -4 -4 -10 3 -5 1 -10 -5 -10 -6 0 -46 -29 -89 -65 -43 -35 -81 -62 -85
-60 -3 3 -4 2 -1 -2 6 -8 -76 -69 -88 -65 -5 1 -6 -2 -2 -7 3 -6 -4 -15 -16
-21 -19 -11 -45 -31 -73 -55 -6 -6 -29 -24 -50 -40 -22 -17 -50 -39 -62 -50
-12 -11 -47 -38 -78 -60 -30 -22 -56 -46 -56 -52 0 -7 -3 -13 -8 -13 -11 0
-172 -160 -172 -171 0 -5 -5 -9 -10 -9 -14 0 -79 -68 -72 -75 3 -3 -1 -5 -8
-5 -14 0 -47 -35 -91 -97 -17 -24 -35 -43 -40 -43 -6 0 -7 -4 -4 -10 3 -5 1
-10 -6 -10 -7 0 -10 -2 -7 -5 5 -6 -13 -31 -54 -75 -9 -10 -14 -21 -10 -24 3
-3 -1 -6 -8 -6 -7 0 -10 -3 -7 -7 4 -3 -2 -13 -13 -20 -11 -8 -18 -19 -15 -24
4 -5 3 -9 -2 -9 -4 0 -21 -17 -37 -37 -16 -20 -24 -33 -16 -28 9 5 11 4 6 -3
-4 -7 -14 -12 -22 -12 -8 0 -13 -3 -12 -7 3 -8 -52 -124 -62 -133 -3 -3 -14
-24 -24 -47 -10 -23 -23 -40 -29 -36 -6 3 -7 1 -3 -5 7 -11 -20 -70 -37 -83
-5 -3 -8 -9 -8 -13 1 -3 -5 -19 -13 -35 -9 -16 -12 -31 -9 -35 4 -3 1 -6 -6
-6 -7 0 -9 -4 -6 -10 3 -5 1 -10 -6 -10 -7 0 -9 -3 -6 -6 3 -4 2 -15 -4 -26
-6 -11 -12 -29 -14 -40 -3 -12 -8 -24 -13 -27 -4 -3 -7 -13 -7 -21 1 -8 -4
-24 -11 -35 -6 -11 -11 -32 -10 -47 1 -16 -1 -28 -5 -28 -3 0 -6 -6 -6 -12 -1
-14 -9 -69 -17 -108 -3 -14 -7 -43 -11 -65 -3 -22 -10 -42 -16 -44 -5 -1 -2
-9 8 -17 10 -7 13 -14 8 -14 -12 0 -12 -70 -1 -88 4 -7 2 -12 -6 -12 -9 0 -9
-3 2 -10 8 -5 11 -10 5 -10 -5 0 -10 -13 -10 -30 0 -16 2 -30 5 -30 3 0 5 -13
5 -30 0 -16 -4 -30 -8 -30 -5 0 -5 -6 0 -12 4 -7 9 -33 10 -58 1 -25 5 -61 9
-80 4 -19 8 -56 8 -82 1 -27 3 -48 6 -48 3 0 7 -10 8 -23 2 -25 10 -62 12 -62
3 0 11 -39 13 -62 1 -13 4 -23 7 -23 5 0 9 -19 12 -57 1 -7 4 -13 7 -13 4 0 8
-10 9 -22 1 -13 4 -32 6 -43 3 -11 5 -24 5 -28 1 -5 5 -6 10 -3 4 3 6 -6 3
-19 -2 -15 0 -25 7 -25 6 0 11 -9 11 -20 0 -11 5 -20 10 -20 6 0 10 -9 10 -20
0 -11 5 -20 10 -20 6 0 10 -9 10 -19 0 -11 5 -21 11 -23 5 -2 11 -10 13 -18 5
-26 40 -100 48 -100 5 0 8 -9 8 -20 0 -11 5 -20 11 -20 6 0 8 -7 5 -16 -3 -8
-2 -12 4 -9 6 3 10 -3 10 -14 0 -12 5 -21 11 -21 5 0 8 -4 4 -9 -3 -5 2 -16
11 -25 8 -9 12 -20 9 -26 -3 -5 -3 -10 2 -10 4 0 19 -25 33 -55 14 -30 28 -55
33 -55 4 0 6 -3 5 -7 -2 -11 35 -73 45 -73 4 0 7 -6 7 -12 0 -7 11 -26 25 -42
14 -16 25 -35 25 -43 0 -7 7 -16 15 -19 8 -4 12 -10 9 -15 -3 -5 0 -9 5 -9 6
0 11 -5 11 -10 0 -6 9 -20 20 -32 10 -12 17 -25 14 -30 -3 -4 2 -8 10 -8 9 0
16 -9 16 -20 0 -11 5 -20 10 -20 6 0 10 -7 10 -16 0 -8 4 -13 8 -10 4 2 14 -8
21 -24 7 -16 50 -69 96 -117 46 -48 82 -91 79 -95 -3 -5 -2 -7 3 -6 11 4 133
-118 133 -132 0 -6 4 -8 10 -5 6 3 10 2 10 -3 0 -6 29 -38 64 -73 36 -35 63
-67 60 -71 -3 -4 1 -8 9 -8 8 0 26 -12 41 -26 14 -15 26 -24 26 -20 0 4 11 -3
24 -16 36 -35 65 -58 74 -58 4 0 14 -9 22 -20 8 -11 18 -20 23 -20 4 0 18 -9
30 -20 76 -67 107 -91 107 -81 0 7 4 10 8 7 5 -3 10 7 10 22 1 15 4 54 7 87 5
57 5 68 5 98 -1 35 12 122 19 127 4 3 7 20 6 38 0 17 3 32 7 32 4 0 7 3 7 8
-1 4 -1 9 0 12 1 3 4 25 7 50 2 25 9 46 14 48 5 2 7 9 4 17 -3 7 0 16 5 20 6
3 9 11 6 16 -4 5 2 21 13 37 11 15 17 33 15 40 -3 6 0 12 6 12 6 0 11 9 11 20
0 11 4 20 8 20 4 0 8 10 9 22 1 11 8 25 15 29 7 5 10 9 6 9 -4 0 5 24 21 53
30 55 30 55 38 87 3 11 9 17 14 14 5 -3 6 2 3 10 -3 9 -1 16 5 16 6 0 11 7 11
15 0 8 5 15 12 15 6 0 9 3 5 6 -3 3 3 15 13 27 11 11 17 24 14 29 -3 4 2 11
10 14 9 3 13 10 10 15 -3 5 -1 9 4 9 5 0 15 14 22 30 7 17 16 30 21 30 5 0 9
6 9 14 0 8 7 21 15 29 8 8 16 21 17 28 4 19 24 39 39 39 7 0 9 3 6 7 -4 3 1
12 11 20 11 10 12 12 2 8 -8 -4 -5 2 8 13 12 11 22 24 22 30 0 5 10 21 23 35
44 51 62 73 62 79 0 8 135 167 192 225 18 18 29 33 26 33 -4 0 2 8 13 18 33
32 80 87 99 115 9 15 21 24 26 21 5 -3 9 0 9 6 0 6 39 48 86 93 47 45 126 121
175 168 49 47 91 83 94 81 3 -3 5 3 5 13 0 10 3 16 6 13 3 -3 36 24 74 61 110
106 150 141 150 133 1 -4 7 4 15 18 8 14 14 21 15 17 0 -4 18 11 40 33 22 22
40 39 40 36 0 -2 22 17 49 42 27 26 77 72 111 102 35 30 72 64 84 75 12 11 24
19 28 18 5 -2 8 4 8 12 0 8 3 15 8 15 4 0 28 20 54 44 25 25 49 42 52 39 3 -4
6 2 6 12 0 10 3 16 6 13 3 -4 28 16 55 43 27 27 54 49 60 49 5 0 7 5 4 10 -3
5 -1 10 4 10 6 0 28 18 50 40 21 22 41 37 45 33 3 -3 6 0 6 8 0 17 36 50 44
42 3 -4 6 2 6 12 0 10 3 16 6 12 3 -3 37 25 75 63 38 38 69 67 69 65 0 -2 29
25 65 60 36 36 65 63 65 61 0 -4 171 158 296 281 46 46 84 88 84 95 0 6 3 9 6
5 6 -5 111 96 115 111 1 4 15 16 30 28 16 11 26 24 22 27 -3 4 -1 7 5 7 10 0
346 334 362 360 4 7 10 11 14 11 3 -1 6 2 5 5 0 4 12 15 28 25 15 10 24 19 18
19 -5 1 1 7 15 15 14 8 22 14 18 15 -5 0 0 8 10 18 9 11 20 17 25 15 4 -3 6 0
5 5 -2 5 9 24 25 41 15 17 25 31 22 31 -3 0 3 8 13 18 29 32 52 62 46 62 -3 0
7 11 22 25 15 14 24 25 21 25 -6 0 21 35 51 66 7 8 10 14 6 14 -4 0 3 8 14 19
12 10 22 23 22 30 0 6 4 11 10 11 5 0 21 21 33 48 35 69 61 112 69 112 4 0 5
6 2 13 -2 7 4 24 16 37 11 13 20 29 20 35 0 7 7 18 15 25 9 7 14 19 11 26 -3
7 2 15 10 18 9 3 12 10 9 16 -3 5 1 10 9 10 9 0 13 7 11 20 -2 11 0 20 5 20 5
0 19 22 32 49 12 27 26 47 32 44 5 -3 6 -2 3 3 -3 6 3 29 13 52 11 23 21 50
22 60 2 9 9 23 16 30 6 7 12 22 12 32 0 10 5 22 10 25 6 3 10 15 10 26 0 10 4
19 10 19 5 0 7 7 4 15 -4 8 -1 15 7 15 7 0 10 3 6 6 -3 4 0 19 8 34 8 15 11
30 8 34 -4 3 -1 6 5 6 7 0 12 13 12 29 0 17 4 32 10 36 5 3 7 12 4 20 -3 8 -2
20 2 27 5 7 10 21 11 31 5 33 12 62 13 62 3 0 10 39 13 67 1 16 6 28 10 28 4
0 7 6 6 13 -4 30 2 58 11 52 6 -3 10 1 10 10 0 9 -4 14 -8 11 -5 -3 -9 1 -9 9
0 8 3 12 6 11 12 -8 10 108 -2 123 -9 11 -9 13 0 8 16 -10 15 222 -1 242 -8
11 -8 13 1 7 10 -5 11 7 8 51 -3 32 -6 67 -8 78 -2 11 1 26 6 33 6 8 5 12 -2
12 -7 0 -9 5 -6 10 3 6 1 10 -6 10 -9 0 -9 3 0 14 9 11 9 20 2 34 -6 11 -12
41 -13 66 0 25 -4 46 -7 46 -3 0 -6 17 -7 38 -1 33 -8 92 -18 147 -2 11 -7 38
-10 60 -4 22 -9 45 -11 52 -2 7 0 15 6 19 7 4 5 12 -5 23 -8 9 -13 29 -12 44
2 17 -3 31 -13 37 -12 7 -12 9 -2 10 11 0 11 3 1 15 -10 12 -10 15 1 15 12 0
12 2 1 9 -8 4 -13 11 -12 15 1 3 -2 28 -6 54 -5 26 -8 50 -9 54 0 3 -3 10 -7
13 -4 4 -3 16 3 26 7 14 7 19 -3 17 -8 -2 -12 11 -13 37 0 22 -5 39 -10 38 -6
-1 -10 15 -9 35 0 20 -2 41 -5 47 -6 11 -11 37 -13 73 -1 12 -6 22 -11 22 -4
0 -5 5 -2 10 3 6 2 10 -3 10 -6 0 -8 9 -5 20 3 11 1 20 -4 20 -10 0 -11 6 -14
55 -1 14 -4 25 -8 25 -4 0 -15 14 -24 30 -10 17 -25 30 -33 30 -9 0 -12 5 -8
12 5 8 2 9 -9 5 -10 -4 -17 -1 -17 5 0 6 -3 8 -7 5 -3 -4 -12 -2 -19 4 -8 7
-14 7 -19 -1z m290 -800 c3 -5 1 -10 -4 -10 -6 0 -11 5 -11 10 0 6 2 10 4 10
3 0 8 -4 11 -10z m72 -992 c-3 -8 -6 -5 -6 6 -1 11 2 17 5 13 3 -3 4 -12 1
-19z"/>
<path d="M3534 8281 c-2 -2 -17 -5 -32 -6 -35 -1 -54 -13 -46 -27 4 -6 2 -8
-3 -5 -14 9 -81 -55 -75 -72 3 -8 0 -11 -7 -7 -6 4 -12 4 -12 -1 -1 -4 -4 -19
-6 -33 -3 -14 -5 -37 -6 -52 -1 -16 -5 -28 -8 -28 -3 0 -6 -7 -6 -15 0 -8 4
-15 9 -15 4 0 8 -9 8 -20 0 -24 18 -58 42 -81 10 -9 15 -19 11 -23 -3 -3 -1
-6 6 -6 7 0 22 -10 33 -22 11 -13 16 -16 12 -8 -7 13 -5 13 9 1 9 -7 17 -10
17 -5 0 4 7 -1 15 -12 10 -13 14 -14 15 -5 0 10 3 11 14 2 14 -12 117 -11 109
2 -2 4 3 8 11 8 28 2 31 4 49 19 42 35 68 66 73 88 4 12 9 22 13 22 7 0 13 35
13 80 1 40 -10 80 -28 109 -24 38 -88 98 -101 94 -6 -2 -14 0 -17 6 -4 6 -13
8 -21 4 -8 -3 -15 -1 -15 5 0 9 -66 12 -76 3z"/>
<path d="M979 8184 c-6 -8 -22 -12 -35 -10 -17 3 -24 0 -24 -10 0 -8 -4 -13
-9 -10 -5 3 -17 -6 -27 -20 -11 -15 -25 -32 -32 -40 -11 -12 -11 -14 0 -14 10
0 10 -2 1 -8 -14 -9 -24 -67 -14 -78 3 -3 7 -10 7 -15 1 -5 2 -10 4 -11 1 -2
3 -11 5 -22 4 -20 23 -39 74 -76 19 -13 31 -17 26 -9 -7 12 -6 12 7 1 17 -14
98 -14 98 0 0 4 4 7 9 6 15 -4 71 35 71 50 0 6 4 12 9 12 10 0 25 48 22 68 -1
6 2 12 8 12 8 0 1 29 -25 101 -3 9 -16 22 -30 29 -13 7 -21 17 -18 22 3 4 -4
8 -15 8 -12 0 -21 5 -21 12 0 6 -2 9 -6 6 -3 -3 -20 -2 -39 2 -25 6 -38 4 -46
-6z"/>
<path d="M1540 8133 c0 -7 -3 -12 -7 -11 -5 1 -19 -4 -32 -11 -29 -16 -68 -51
-57 -51 4 0 0 -7 -9 -16 -9 -9 -14 -23 -11 -31 3 -8 1 -11 -5 -8 -6 5 -9 -11
-8 -44 2 -28 6 -51 11 -51 4 0 8 -8 8 -18 0 -22 62 -82 85 -82 8 0 15 -4 15
-8 0 -5 23 -8 50 -8 28 -1 50 3 50 8 0 4 9 8 20 8 11 0 23 7 26 15 4 8 10 12
15 9 5 -3 12 3 16 13 4 10 14 23 22 30 9 7 12 13 7 13 -5 0 -3 7 4 15 7 8 9
15 5 15 -4 0 -3 6 2 13 6 6 8 21 6 32 -2 11 -5 27 -5 35 0 8 -5 21 -11 28 -5
6 -6 12 -3 12 4 0 -4 11 -18 24 -15 13 -26 29 -26 36 0 7 -3 10 -7 7 -3 -4
-16 -1 -27 7 -27 17 -96 26 -96 11 0 -5 -5 -3 -10 5 -6 10 -10 11 -10 3z"/>
<path d="M2567 8113 c-2 -1 -21 -4 -43 -6 -21 -1 -45 -6 -52 -10 -6 -5 -12 -5
-12 0 0 4 -5 1 -10 -9 -6 -10 -18 -14 -30 -11 -11 3 -20 0 -20 -6 0 -6 -3 -10
-7 -9 -14 4 -53 -13 -53 -22 0 -5 -7 -6 -17 -3 -11 4 -14 3 -9 -5 6 -11 -5
-17 -26 -13 -5 0 -7 -2 -6 -6 1 -5 -15 -26 -35 -47 -20 -22 -37 -37 -37 -33 0
4 -6 2 -14 -5 -8 -7 -14 -15 -14 -18 1 -26 -4 -40 -14 -37 -7 1 -13 -5 -13
-13 0 -8 -7 -20 -15 -27 -8 -7 -10 -13 -5 -13 6 0 4 -4 -2 -8 -7 -4 -14 -18
-16 -31 -2 -12 -10 -27 -18 -32 -12 -8 -12 -10 1 -19 11 -7 11 -10 2 -10 -7 0
-10 -4 -7 -10 3 -5 3 -10 -2 -10 -4 0 -9 -12 -10 -27 -1 -16 -3 -50 -5 -78 -3
-27 0 -56 5 -62 6 -9 5 -13 -4 -13 -11 0 -11 -2 1 -10 8 -5 11 -10 6 -10 -5 0
-2 -8 5 -17 12 -14 12 -15 1 -9 -11 7 -12 4 -3 -11 6 -11 7 -23 4 -27 -3 -3
-2 -6 4 -6 5 0 10 -7 11 -15 1 -8 3 -22 4 -30 1 -8 5 -15 10 -15 4 0 8 -9 8
-20 0 -11 4 -20 10 -20 5 0 9 -6 7 -12 -1 -7 5 -12 13 -10 8 2 12 0 8 -4 -4
-4 1 -19 12 -34 11 -15 16 -31 12 -35 -4 -5 -2 -6 3 -3 12 6 66 -48 56 -57 -3
-4 -1 -5 4 -3 13 4 66 -37 59 -45 -3 -3 4 -3 17 0 15 4 20 3 15 -5 -5 -8 0
-12 13 -12 12 0 21 -4 21 -10 0 -5 9 -10 19 -10 11 0 23 -5 26 -10 4 -6 11 -8
16 -5 5 4 9 3 9 -2 0 -7 22 -12 78 -16 12 -1 22 -5 22 -8 0 -8 143 1 155 11 5
4 22 7 38 5 15 -2 27 1 27 6 0 5 3 8 8 7 14 -3 62 14 58 21 -3 4 5 8 16 8 11
1 27 10 35 20 8 10 11 11 7 3 -8 -16 25 8 63 48 13 13 23 20 23 16 0 -7 7 1
52 55 10 12 14 21 10 21 -4 0 1 5 11 11 9 5 17 16 17 23 0 8 7 17 16 20 8 3
12 11 9 16 -4 6 -2 16 3 23 11 14 34 82 37 112 1 11 4 20 5 20 1 0 3 37 4 83
1 45 -1 82 -4 82 -3 0 -6 15 -7 33 -4 51 -6 56 -20 61 -8 3 -12 10 -9 15 8 12
-22 81 -35 81 -5 0 -8 4 -5 9 3 5 -8 23 -24 41 -16 18 -28 36 -25 41 3 5 -5
11 -19 15 -14 3 -24 11 -23 18 1 6 -4 10 -10 9 -7 -2 -13 5 -13 14 0 9 -3 14
-6 10 -4 -3 -13 1 -21 9 -8 8 -19 12 -24 8 -5 -3 -8 0 -7 6 2 7 -6 14 -16 16
-10 1 -22 8 -26 15 -4 6 -19 12 -34 12 -15 0 -26 5 -26 13 0 7 -8 11 -20 9
-11 -2 -22 0 -25 6 -4 5 -13 9 -21 9 -10 0 -12 -5 -8 -12 5 -8 1 -7 -10 2 -15
12 -130 23 -139 13z"/>
<path d="M7153 8002 c-13 -2 -23 -8 -23 -13 0 -5 -7 -9 -15 -9 -8 0 -15 -5
-15 -12 0 -6 -3 -9 -6 -5 -7 7 -19 -4 -58 -56 -25 -32 -31 -52 -38 -114 -1 -7
-4 -13 -8 -13 -3 0 -6 -8 -6 -17 -1 -10 -5 -31 -9 -48 -10 -42 -12 -270 -2
-325 4 -25 10 -72 13 -105 4 -33 9 -64 12 -70 3 -5 7 -32 8 -60 3 -43 10 -90
14 -90 1 0 3 -22 6 -50 3 -27 8 -54 12 -60 4 -5 7 -22 6 -37 0 -16 2 -28 6
-28 4 0 6 -13 5 -30 -1 -16 2 -30 6 -30 5 0 9 -10 9 -22 0 -24 7 -73 10 -73 2
0 4 -9 6 -20 1 -11 5 -35 8 -53 2 -18 11 -41 18 -50 10 -12 10 -14 1 -8 -14 8
-18 -6 -5 -18 8 -9 10 -196 2 -196 -3 0 -5 -19 -3 -42 1 -23 -3 -49 -10 -57
-9 -12 -9 -13 1 -7 15 9 15 1 1 -26 -6 -11 -7 -18 -1 -14 6 3 8 -7 6 -27 -1
-17 -3 -32 -4 -32 -1 0 -2 -20 -3 -45 -1 -25 -8 -50 -16 -56 -10 -8 -11 -13
-2 -18 8 -5 8 -13 -1 -29 -6 -12 -13 -35 -15 -51 -2 -17 -9 -34 -16 -38 -9 -6
-8 -8 3 -8 10 0 11 -3 4 -8 -6 -4 -10 -17 -9 -29 1 -13 -1 -23 -5 -23 -7 0 -9
-10 -13 -54 -1 -13 -5 -22 -9 -20 -6 4 -24 -54 -20 -68 1 -5 -3 -8 -9 -8 -6 0
-9 -7 -5 -15 3 -8 1 -15 -4 -15 -6 0 -9 -3 -8 -7 4 -12 -35 -107 -46 -115 -6
-4 -8 -8 -4 -8 4 0 1 -15 -7 -34 -8 -18 -11 -36 -8 -40 4 -3 2 -6 -4 -6 -6 0
-21 -25 -34 -55 -13 -30 -27 -55 -32 -55 -4 0 -6 -4 -2 -9 3 -5 -2 -17 -11
-25 -8 -9 -13 -16 -9 -16 5 0 -10 -30 -56 -110 -8 -14 -19 -30 -26 -37 -6 -7
-15 -22 -18 -33 -3 -11 -11 -20 -16 -20 -5 0 -9 -6 -9 -13 0 -8 -9 -22 -19
-31 -11 -10 -23 -31 -26 -47 -4 -16 -10 -27 -15 -24 -7 4 -23 -31 -21 -47 1
-5 -6 -8 -15 -8 -8 0 -13 -4 -9 -9 3 -5 -2 -16 -10 -24 -8 -9 -15 -20 -15 -24
0 -5 -9 -19 -20 -31 -11 -12 -19 -23 -18 -24 3 -4 -34 -60 -54 -82 -10 -11
-18 -24 -18 -28 0 -5 -9 -18 -20 -30 -24 -26 -26 -54 -5 -62 8 -3 15 -1 15 5
0 5 6 9 13 7 19 -3 57 12 57 23 0 6 5 7 10 4 6 -3 17 1 26 9 9 9 19 14 24 11
5 -3 10 -2 12 3 1 4 28 21 58 36 30 16 74 41 98 57 24 16 46 29 50 29 4 0 19
11 34 24 14 14 29 22 32 19 3 -4 6 -1 6 6 0 7 5 9 10 6 6 -3 10 -3 10 2 0 7
42 35 65 43 6 1 15 10 22 19 7 9 13 12 13 7 0 -5 20 11 45 36 24 25 47 43 50
40 3 -3 5 0 5 6 0 10 24 39 95 113 8 9 15 21 15 27 0 6 9 18 21 26 12 8 18 19
14 25 -3 6 -2 11 3 11 6 0 23 20 39 45 15 25 31 45 36 45 4 0 7 6 7 14 0 7 7
19 15 26 8 7 12 16 9 21 -3 5 0 9 7 9 7 0 9 3 6 7 -4 3 0 17 8 30 9 13 13 29
9 35 -4 6 -3 8 4 4 6 -3 13 3 17 14 3 11 10 20 14 20 4 0 8 6 8 13 0 20 43
107 53 107 5 0 12 20 16 45 3 26 10 42 16 39 6 -4 8 -1 6 7 -3 8 1 26 9 42 7
15 11 27 7 27 -4 0 -1 7 6 15 7 8 9 15 5 15 -4 0 -2 7 5 15 7 8 9 15 5 15 -4
0 -2 7 5 15 6 8 9 19 5 25 -3 5 -2 10 4 10 9 0 27 56 23 73 -1 4 3 7 10 7 6 0
9 3 5 6 -3 4 0 22 8 40 10 25 11 34 2 34 -8 0 -7 3 2 9 7 5 11 13 7 19 -3 6
-2 13 2 16 5 3 8 17 7 31 -2 14 1 25 5 25 5 0 7 9 5 20 -2 11 -1 20 3 20 4 0
7 18 6 40 0 22 3 40 8 40 5 0 7 16 5 35 -3 19 -1 35 2 35 3 0 6 48 6 108 -1
59 3 115 8 126 5 10 5 16 0 13 -5 -3 -10 38 -12 91 -3 109 -7 177 -11 177 -1
0 -4 23 -5 52 -1 28 -5 56 -9 61 -3 6 0 13 6 15 10 4 10 6 1 6 -7 1 -13 8 -13
17 0 8 4 13 9 9 5 -3 3 8 -6 25 -8 17 -12 37 -9 45 3 8 0 15 -7 15 -8 0 -6 4
3 10 8 5 10 10 4 10 -6 0 -11 6 -12 13 -1 16 -11 85 -18 122 -3 17 -6 49 -7
72 -1 23 -6 41 -11 40 -4 -1 -9 19 -11 44 -1 25 -8 56 -15 69 -8 15 -8 20 -1
16 8 -5 8 0 1 19 -6 15 -8 31 -4 36 3 5 1 9 -4 9 -6 0 -8 9 -5 20 3 11 1 20
-4 20 -5 0 -9 18 -8 39 1 22 -2 38 -6 36 -3 -3 -7 5 -7 18 0 12 -8 40 -17 62
-10 22 -19 44 -19 48 -1 4 -8 12 -16 17 -8 5 -12 10 -8 10 18 0 -107 130 -125
130 -6 0 -19 8 -30 18 -15 12 -18 13 -12 2 6 -11 4 -11 -11 2 -19 17 -47 19
-60 5 -4 -4 -12 -3 -18 1 -6 4 -21 6 -33 4z"/>
<path d="M4044 7903 c4 -8 2 -13 -5 -13 -7 0 -21 -8 -32 -17 -11 -10 -17 -12
-13 -5 4 6 2 12 -3 12 -6 0 -11 -7 -11 -15 0 -8 -7 -15 -15 -15 -8 0 -15 -7
-15 -16 0 -8 -4 -13 -9 -9 -5 3 -12 -4 -16 -15 -3 -11 -11 -20 -16 -20 -6 0
-7 -4 -4 -10 3 -5 1 -10 -4 -10 -6 0 -11 -9 -11 -19 0 -11 -4 -22 -8 -25 -16
-10 -7 -140 11 -166 9 -13 17 -29 17 -35 0 -6 11 -19 25 -29 13 -10 22 -23 18
-29 -3 -6 -1 -7 5 -3 7 4 12 3 12 -1 0 -5 9 -14 21 -21 17 -11 20 -11 13 0 -4
7 5 2 19 -11 16 -15 27 -19 27 -12 0 11 3 11 15 1 19 -15 109 -8 157 13 39 17
118 90 118 109 0 6 8 20 18 31 12 15 13 18 2 12 -12 -7 -13 -6 -4 6 19 25 5
166 -17 180 -6 3 -9 8 -8 10 6 7 -28 49 -34 42 -4 -3 -7 1 -7 10 0 10 -7 17
-16 17 -8 0 -12 5 -9 10 3 6 -3 10 -14 10 -10 0 -21 4 -23 10 -1 5 -15 11 -30
12 -16 1 -28 5 -28 9 0 9 -88 4 -97 -4 -3 -4 -13 -1 -21 6 -13 9 -14 9 -8 0z"/>
<path d="M795 7713 c-11 -2 -27 -7 -35 -10 -8 -3 -21 -5 -27 -4 -7 1 -13 -3
-13 -9 0 -6 -4 -8 -10 -5 -5 3 -10 1 -10 -4 0 -6 -5 -11 -12 -11 -16 0 -89
-80 -83 -90 3 -5 1 -10 -5 -12 -15 -5 -35 -111 -25 -134 4 -10 8 -28 8 -39 1
-11 7 -24 14 -28 7 -5 11 -12 8 -18 -4 -5 1 -12 9 -15 9 -3 16 -11 16 -18 0
-13 49 -56 65 -57 6 0 16 -6 24 -12 18 -15 38 -19 96 -19 69 1 86 5 126 30 56
36 109 104 109 142 0 11 6 20 13 20 8 0 7 4 -3 10 -8 5 -10 10 -5 10 6 0 10
16 11 34 0 19 -3 33 -8 30 -4 -3 -8 7 -8 21 0 43 -47 111 -101 146 -27 17 -53
29 -56 25 -3 -3 -11 -2 -17 3 -14 12 -55 19 -81 14z"/>
<path d="M1619 7566 c-2 -2 -20 -6 -39 -9 -59 -10 -94 -22 -118 -41 -39 -32
-71 -73 -67 -84 3 -7 0 -10 -5 -7 -5 3 -12 -6 -16 -20 -3 -14 -9 -25 -13 -25
-9 0 -7 -92 2 -107 4 -6 1 -14 -5 -16 -10 -4 -10 -6 0 -6 6 -1 12 -10 12 -21
0 -11 5 -20 10 -20 6 0 10 -6 10 -14 0 -8 8 -21 19 -28 10 -7 20 -17 21 -23 4
-12 50 -49 50 -40 0 4 7 -1 16 -10 9 -9 23 -14 30 -11 8 3 14 2 14 -3 0 -4 6
-8 13 -9 6 0 21 -3 32 -5 11 -3 35 2 53 9 18 7 30 9 27 3 -4 -5 12 0 34 12 23
11 41 26 41 32 0 6 3 8 6 4 8 -7 64 53 64 69 0 7 5 14 11 16 6 2 12 16 12 31
0 15 3 27 7 27 12 0 10 63 -3 79 -10 12 -9 13 3 6 12 -6 13 -5 3 6 -7 7 -13
21 -13 31 0 10 -4 18 -9 18 -5 0 -8 7 -7 16 3 17 -37 64 -54 64 -5 0 -12 9
-15 20 -4 11 -10 18 -15 15 -5 -3 -14 0 -22 7 -7 7 -26 15 -43 17 -16 1 -33 7
-36 12 -3 5 -7 7 -10 5z"/>
<path d="M3307 7538 c2 -5 -3 -8 -12 -8 -21 0 -68 -47 -60 -60 3 -6 2 -10 -4
-10 -5 0 -7 -18 -4 -42 3 -31 13 -50 35 -70 17 -15 35 -25 39 -22 5 3 9 1 9
-4 0 -7 44 -9 60 -2 3 1 8 2 13 1 4 0 7 4 7 9 0 6 6 10 13 10 7 0 19 10 26 23
8 12 13 22 12 22 -1 0 2 12 8 28 6 16 7 27 1 27 -5 0 -7 6 -4 14 3 8 -4 24
-15 35 -12 12 -21 26 -21 31 0 6 -3 9 -7 9 -19 -3 -34 2 -29 9 2 4 -13 7 -34
7 -21 0 -36 -3 -33 -7z"/>
<path d="M4577 7419 c-20 -17 -35 -34 -32 -39 3 -4 -1 -10 -8 -13 -17 -6 -15
-84 2 -117 15 -27 51 -56 64 -52 4 1 7 -2 7 -6 0 -4 20 -8 45 -8 25 0 45 4 45
9 0 4 5 5 10 2 6 -3 13 1 16 9 3 9 10 14 14 11 5 -3 14 8 22 25 7 16 15 30 18
30 3 0 6 18 7 40 2 23 -2 40 -8 40 -6 0 -8 4 -4 9 3 5 1 12 -5 16 -6 4 -8 9
-6 13 2 4 -14 20 -37 36 -22 17 -37 23 -32 15 7 -11 6 -12 -6 -3 -8 6 -23 11
-34 11 -11 0 -26 -5 -34 -11 -11 -8 -13 -8 -7 2 11 18 4 15 -37 -19z"/>
<path d="M3750 7349 c0 -5 -3 -8 -7 -7 -16 3 -63 -15 -63 -24 0 -5 -4 -6 -10
-3 -5 3 -10 1 -10 -6 0 -6 -10 -20 -22 -30 -11 -11 -18 -19 -13 -19 4 0 2 -7
-5 -15 -6 -8 -9 -19 -5 -25 3 -5 2 -10 -4 -10 -5 0 -8 -8 -6 -17 2 -10 4 -31
4 -46 1 -16 5 -26 11 -22 5 3 7 0 5 -7 -8 -20 45 -75 89 -93 41 -17 96 -17
108 0 5 6 8 5 8 -3 0 -10 3 -10 16 0 48 39 83 76 77 81 -3 4 -1 7 6 7 7 0 10
4 6 9 -3 5 -1 12 5 16 12 7 9 95 -3 95 -5 0 -6 7 -3 15 3 9 -1 18 -9 21 -8 3
-17 14 -20 25 -4 10 -13 19 -21 19 -8 0 -14 4 -14 9 0 11 -23 20 -77 30 -24 5
-43 5 -43 0z"/>
<path d="M317 7212 c-9 -2 -14 -8 -11 -14 4 -7 2 -8 -4 -4 -14 9 -64 -34 -58
-50 3 -7 0 -14 -6 -16 -15 -5 -12 -89 4 -99 7 -5 9 -9 4 -9 -8 0 2 -10 51 -50
21 -17 89 -24 98 -10 4 6 11 8 16 5 5 -4 9 -1 9 6 0 7 3 10 6 6 3 -3 17 5 31
19 14 14 22 28 19 31 -3 3 -1 12 4 18 33 40 5 108 -65 162 -11 9 -69 12 -98 5z"/>
<path d="M6706 7195 c-9 -9 -14 -20 -11 -25 3 -5 -4 -11 -15 -15 -11 -3 -20
-10 -20 -15 0 -5 -11 -20 -25 -34 -14 -14 -25 -32 -25 -41 0 -9 -4 -14 -9 -11
-5 4 -8 -5 -7 -19 2 -14 -1 -22 -6 -18 -6 3 -7 -3 -3 -16 4 -13 2 -21 -5 -21
-6 0 -9 -4 -5 -9 3 -5 1 -13 -5 -16 -8 -5 -8 -11 0 -20 8 -10 8 -15 0 -20 -6
-4 -9 -13 -6 -21 3 -8 0 -14 -6 -14 -7 0 -7 -4 0 -13 7 -8 6 -18 -4 -31 -7
-10 -11 -22 -9 -27 3 -4 1 -10 -4 -14 -6 -3 -7 -13 -4 -22 4 -11 3 -14 -5 -9
-7 4 -12 3 -12 -3 0 -5 5 -13 11 -16 6 -5 4 -12 -8 -21 -12 -9 -13 -13 -5 -14
7 0 10 -5 7 -10 -10 -16 -17 -61 -18 -115 0 -27 -5 -53 -11 -57 -8 -6 -7 -11
3 -17 8 -5 10 -14 5 -22 -4 -8 -8 -31 -7 -51 1 -27 -2 -36 -10 -31 -7 4 -5 -2
3 -12 9 -10 11 -20 5 -22 -6 -2 -10 -83 -9 -221 1 -119 -2 -221 -6 -227 -9
-14 -10 -55 -1 -55 4 0 8 -7 8 -15 0 -8 -5 -15 -11 -15 -6 0 -6 -4 2 -12 7 -7
8 -17 2 -29 -6 -9 -12 -48 -14 -86 -3 -37 -9 -84 -13 -103 -5 -19 -8 -42 -8
-50 1 -8 -4 -21 -9 -29 -9 -12 -8 -13 4 -6 13 8 13 7 1 -8 -11 -14 -11 -17 0
-17 10 0 10 -3 3 -8 -13 -8 -21 -54 -30 -164 -4 -43 -11 -78 -16 -78 -6 0 -8
-6 -5 -14 3 -8 -1 -17 -9 -20 -8 -3 -14 -12 -14 -21 0 -8 -4 -15 -8 -15 -5 0
-8 -16 -7 -36 0 -20 -5 -38 -11 -41 -7 -3 -11 -10 -8 -18 3 -7 -2 -19 -10 -28
-8 -8 -12 -17 -9 -20 3 -4 -2 -18 -11 -32 -9 -14 -14 -25 -11 -25 3 0 0 -6 -7
-14 -7 -8 -16 -12 -20 -9 -5 2 -8 -4 -8 -15 0 -10 -9 -28 -20 -40 -11 -12 -19
-27 -18 -34 2 -7 -3 -12 -10 -10 -8 1 -12 -5 -10 -15 2 -10 -8 -28 -24 -41
-16 -13 -28 -30 -28 -38 0 -8 -7 -17 -15 -20 -8 -3 -17 -16 -21 -27 -4 -12
-22 -37 -40 -55 -19 -19 -34 -41 -34 -49 0 -8 -4 -11 -10 -8 -5 3 -10 1 -10
-4 0 -19 -4 -25 -28 -46 -39 -34 -21 -51 48 -45 56 5 63 8 120 63 33 32 60 63
60 68 0 6 7 17 15 25 8 9 15 12 15 8 0 -15 36 31 49 63 7 17 21 39 32 49 10 9
19 21 19 26 0 8 9 19 68 84 12 14 19 31 16 37 -4 7 -4 9 1 5 7 -7 49 57 62 95
3 9 9 17 14 17 5 0 9 5 9 11 0 6 7 17 15 26 8 8 13 18 10 23 -3 4 2 11 11 14
8 3 13 10 9 15 -3 5 3 16 13 23 11 7 20 15 20 18 5 35 28 98 34 94 7 -5 12 18
9 38 0 4 13 22 30 39 16 17 29 38 27 47 -2 10 6 26 18 37 11 11 20 30 19 43
-1 13 4 22 13 22 10 0 13 7 9 22 -4 14 0 29 10 40 16 18 56 118 47 118 -3 0 4
10 16 22 11 12 20 34 20 49 0 15 5 31 10 34 6 3 10 15 10 26 0 10 4 27 9 37
18 36 29 68 30 92 2 45 8 64 19 68 7 2 9 8 6 13 -3 6 -1 15 5 22 5 7 8 25 7
39 -2 15 0 25 4 23 5 -3 10 2 14 10 3 8 0 15 -6 15 -7 0 -7 4 -1 13 5 7 9 93
8 197 -3 215 -2 213 -13 206 -5 -3 -8 20 -7 51 1 31 -4 76 -11 100 -7 24 -9
41 -5 38 5 -2 11 2 15 10 3 8 1 15 -5 15 -6 0 -5 8 2 21 8 15 8 19 0 15 -7 -5
-11 4 -11 23 0 18 -5 31 -12 31 -8 0 -9 3 -3 8 12 9 16 44 4 36 -8 -4 -14 25
-10 49 0 4 -4 7 -10 7 -8 0 -8 5 1 15 10 12 10 15 0 15 -10 0 -10 3 -1 14 10
12 8 17 -8 26 -12 6 -21 16 -21 23 0 7 4 6 10 -3 5 -8 10 -10 10 -4 0 6 -7 17
-15 24 -9 7 -14 19 -11 27 3 8 -1 16 -9 19 -8 3 -11 12 -8 21 5 12 3 14 -7 8
-10 -6 -12 -4 -7 8 4 10 2 16 -6 14 -7 -1 -11 6 -9 17 3 14 -1 17 -12 13 -9
-4 -16 -1 -16 6 0 7 -9 13 -20 14 -11 1 -18 -3 -14 -8 7 -11 -18 -8 -27 4 -3
5 -14 1 -23 -8z"/>
<path d="M4841 7143 c-1 -7 -6 -13 -12 -13 -14 0 -39 -25 -39 -39 0 -6 -4 -11
-8 -11 -5 0 -9 -19 -9 -41 0 -56 46 -104 100 -105 20 0 37 3 37 8 0 4 6 8 13
8 19 0 50 47 54 82 4 35 -34 101 -54 94 -6 -3 -14 2 -17 10 -4 10 -11 11 -30
4 -17 -6 -26 -5 -30 3 -3 9 -5 9 -5 0z"/>
<path d="M1000 7074 c0 -15 -2 -16 -9 -5 -6 9 -11 10 -15 2 -4 -6 -11 -9 -16
-6 -5 3 -11 1 -15 -5 -3 -5 -15 -10 -26 -10 -10 0 -19 -4 -19 -10 0 -5 -3 -9
-7 -9 -20 3 -34 -2 -28 -11 3 -5 -1 -10 -9 -10 -9 0 -16 -4 -16 -10 0 -5 -4
-9 -9 -7 -5 1 -23 -14 -41 -33 -18 -19 -27 -26 -19 -15 13 18 13 19 -3 6 -10
-7 -15 -17 -12 -22 2 -5 -4 -16 -15 -26 -11 -9 -18 -20 -15 -25 3 -4 1 -8 -4
-8 -9 0 -27 -47 -24 -62 1 -5 -3 -8 -9 -8 -5 0 -7 -4 -4 -10 3 -5 0 -10 -7
-10 -9 0 -9 -3 2 -10 13 -8 13 -11 1 -19 -15 -10 -18 -141 -4 -164 4 -6 9 -21
10 -32 2 -10 7 -22 11 -25 4 -3 9 -14 10 -25 2 -11 9 -23 15 -27 7 -4 8 -8 2
-8 -5 0 -2 -5 8 -11 9 -5 17 -17 17 -24 0 -8 5 -15 10 -15 6 0 10 -8 10 -17 0
-15 2 -16 10 -3 9 13 10 13 10 0 0 -17 34 -50 50 -50 6 0 10 -4 10 -9 0 -9 54
-35 66 -31 4 1 10 -3 13 -9 4 -6 17 -12 29 -14 12 -2 25 -6 28 -10 12 -12 26
-8 18 6 -4 6 1 5 12 -4 21 -17 112 -18 123 0 4 6 12 7 21 1 9 -5 19 -5 27 2 7
6 13 7 13 4 0 -4 7 0 16 9 9 9 22 14 29 11 8 -3 16 2 19 10 3 8 12 14 19 14 8
0 22 9 32 20 10 11 24 20 32 20 7 0 12 6 11 13 -2 6 3 11 10 9 6 -1 11 4 10
10 -2 7 3 12 10 10 8 -1 11 2 7 8 -3 5 0 13 9 16 8 3 13 11 10 19 -3 7 2 15
11 19 9 3 13 10 10 16 -3 5 -1 10 6 10 6 0 9 8 6 19 -3 14 -1 18 10 14 12 -5
14 -1 9 15 -4 11 -2 23 5 27 8 6 8 9 -1 15 -9 5 -8 11 2 21 15 16 16 111 1
149 -6 14 -9 28 -6 33 2 4 0 7 -4 7 -5 0 -9 10 -10 21 -1 12 -10 30 -19 40 -9
11 -13 19 -8 19 5 1 -1 9 -13 19 -12 10 -20 21 -17 24 3 3 -11 17 -30 32 -20
15 -33 31 -30 36 3 5 -2 6 -11 3 -11 -5 -18 0 -22 14 -3 13 -10 19 -19 15 -8
-3 -14 0 -14 7 0 6 -4 9 -9 6 -5 -4 -11 -1 -13 4 -2 6 -13 12 -26 13 -12 0
-22 5 -22 10 0 5 -7 7 -15 3 -8 -3 -15 -1 -15 3 0 5 -9 7 -20 4 -11 -3 -20 -1
-20 5 0 11 -86 10 -97 -1 -3 -4 -12 -2 -20 4 -10 9 -13 7 -13 -7z"/>
<path d="M3110 7079 c0 -5 -55 -17 -97 -21 -7 -1 -13 -5 -13 -10 0 -5 -4 -7
-9 -3 -5 3 -12 1 -16 -5 -3 -5 -15 -10 -26 -10 -11 0 -18 -4 -15 -9 4 -5 -7
-12 -24 -16 -17 -4 -28 -10 -25 -15 3 -5 -4 -11 -15 -15 -11 -3 -20 -11 -20
-16 0 -6 -4 -7 -10 -4 -5 3 -10 1 -10 -5 0 -6 -11 -22 -25 -36 -14 -14 -25
-29 -25 -35 0 -6 -4 -8 -8 -5 -4 2 -18 -18 -30 -45 -13 -27 -27 -49 -31 -49
-5 0 -8 -8 -8 -17 0 -34 -3 -44 -11 -39 -4 2 -7 -13 -7 -35 0 -21 -3 -39 -7
-39 -3 0 -6 -34 -6 -75 1 -41 5 -75 9 -75 4 0 6 -16 4 -35 -1 -19 2 -32 7 -29
8 5 12 -9 9 -33 -1 -7 4 -13 10 -13 7 0 10 -3 6 -6 -3 -4 1 -13 9 -21 8 -8 12
-19 9 -24 -4 -5 -1 -9 4 -9 6 0 11 -6 11 -13 0 -15 90 -113 101 -110 5 2 6 -4
2 -13 -3 -8 -2 -14 3 -13 18 3 54 -14 48 -22 -3 -5 2 -9 10 -9 9 0 16 -4 16
-9 0 -6 9 -8 20 -6 11 2 18 0 15 -6 -4 -5 7 -12 24 -15 17 -4 31 -9 31 -13 0
-3 16 -7 36 -8 20 -1 41 -6 47 -11 7 -5 39 -8 72 -7 76 3 77 3 71 13 -3 5 13
7 35 5 21 -2 39 2 39 7 0 6 3 9 8 8 11 -4 73 23 105 44 15 11 27 17 27 13 0
-3 15 10 34 29 18 20 36 32 40 29 3 -4 6 -1 6 6 0 7 14 26 31 42 17 16 28 29
24 29 -4 0 -2 7 5 15 7 8 9 15 4 15 -5 0 -1 5 9 11 9 6 15 14 12 19 -3 4 3 11
12 14 15 6 15 8 3 16 -11 7 -12 10 -2 10 7 0 10 5 7 10 -3 6 -1 10 5 10 6 0 9
4 5 9 -3 5 -1 12 4 16 5 3 8 14 6 25 -2 11 0 22 5 25 5 3 7 14 5 25 -2 11 0
22 4 24 6 4 7 51 1 51 -1 0 -4 23 -7 50 -2 28 -8 51 -13 53 -5 2 -6 10 -3 18
3 8 0 20 -6 28 -6 7 -8 16 -4 19 3 4 1 7 -5 7 -7 0 -12 9 -12 20 0 11 -5 20
-11 20 -5 0 -7 5 -4 10 3 6 2 10 -3 10 -5 0 -15 13 -22 29 -6 16 -18 32 -26
35 -8 3 -14 12 -14 21 0 8 -4 15 -9 15 -5 0 -28 18 -50 39 -23 22 -41 34 -41
28 0 -7 -5 -4 -11 6 -6 9 -14 15 -20 12 -5 -4 -9 -1 -9 4 0 6 -6 11 -14 11 -7
0 -19 7 -26 15 -11 13 -15 13 -21 3 -7 -10 -9 -10 -9 1 0 7 -6 11 -15 7 -8 -3
-15 0 -15 5 0 7 -11 9 -25 7 -14 -3 -28 -1 -31 4 -3 4 -10 6 -15 3 -5 -4 -9
-2 -9 2 0 5 -27 9 -60 9 -33 0 -60 -3 -60 -7z"/>
<path d="M4284 7067 c-39 -20 -72 -47 -57 -47 4 0 -1 -7 -11 -15 -14 -11 -16
-15 -5 -15 9 0 10 -3 3 -8 -15 -10 -25 -42 -14 -42 5 0 6 -9 1 -22 -6 -17 -2
-31 13 -52 27 -38 56 -68 56 -58 0 4 4 1 9 -7 10 -15 85 -20 126 -8 11 3 24 6
28 6 5 1 6 5 2 10 -3 5 3 12 13 15 19 7 41 39 46 69 1 9 5 19 8 23 4 3 3 16
-1 28 -5 11 -6 27 -3 35 3 8 0 11 -7 7 -7 -5 -9 -1 -5 8 3 9 1 16 -4 16 -6 0
-14 9 -17 21 -4 11 -9 18 -12 15 -3 -2 -15 4 -26 15 -12 11 -27 17 -33 15 -7
-3 -15 -2 -19 2 -13 13 -54 8 -91 -11z"/>
<path d="M2164 7013 c-7 -8 -16 -12 -18 -11 -3 2 -14 -5 -25 -14 -11 -9 -22
-14 -25 -12 -3 2 -4 1 -1 -3 3 -3 -2 -15 -12 -25 -9 -10 -17 -28 -17 -40 -1
-13 -5 -28 -9 -35 -4 -6 -3 -15 3 -18 6 -4 8 -16 4 -27 -4 -14 -2 -18 5 -14 7
5 9 1 5 -8 -3 -9 -1 -16 5 -16 6 0 11 -6 11 -13 0 -14 41 -48 75 -62 40 -16
106 -7 146 21 22 15 39 33 39 40 0 8 5 14 10 14 6 0 10 9 10 20 0 11 4 20 8
20 4 0 8 18 7 39 0 21 -3 37 -7 34 -5 -2 -8 5 -8 17 0 23 -78 103 -92 94 -4
-3 -8 -1 -8 3 0 14 -92 10 -106 -4z"/>
<path d="M269 6824 c-13 -7 -19 -14 -14 -14 6 0 2 -7 -8 -14 -22 -17 -26 -74
-6 -87 8 -5 10 -9 4 -9 -5 0 1 -8 15 -17 31 -22 88 -18 110 7 9 11 19 17 22
14 3 -3 5 14 5 38 -1 31 -8 49 -25 66 -13 12 -26 23 -30 23 -33 6 -53 4 -73
-7z"/>
<path d="M4760 6783 c0 -7 -8 -13 -18 -13 -20 0 -80 -41 -78 -53 1 -5 -7 -13
-16 -18 -10 -6 -18 -19 -18 -29 0 -10 -5 -22 -10 -25 -6 -4 -7 -12 -3 -18 4
-6 7 -26 6 -44 0 -18 4 -33 9 -33 5 0 7 -3 5 -7 -5 -9 34 -69 46 -71 4 -1 21
-9 37 -17 17 -9 30 -12 30 -8 0 4 5 2 12 -5 7 -7 17 -8 30 -1 13 7 18 6 18 -2
0 -8 4 -9 13 0 8 6 17 8 20 4 4 -3 7 -1 7 6 0 7 6 11 13 9 16 -5 89 70 73 76
-8 3 -7 5 1 5 7 1 10 8 6 18 -4 11 -3 14 6 9 9 -6 12 -2 10 10 -2 11 0 24 4
31 4 6 3 14 -3 18 -5 3 -10 14 -10 24 0 54 -75 122 -138 125 -20 0 -40 6 -44
11 -5 6 -8 5 -8 -2z"/>
<path d="M1857 6638 c2 -5 -2 -8 -10 -8 -35 0 -105 -51 -126 -92 -8 -15 -17
-26 -20 -24 -3 2 -7 -6 -8 -17 -2 -23 -10 -60 -13 -64 -3 -4 -3 -42 0 -45 2
-3 9 -41 12 -65 1 -7 5 -13 10 -13 4 0 8 -7 8 -15 0 -8 5 -15 10 -15 6 0 10
-5 10 -11 0 -15 62 -69 72 -63 4 3 8 0 8 -5 0 -6 8 -11 18 -11 10 0 22 -3 26
-7 12 -12 90 -11 105 1 12 9 13 8 6 -3 -6 -11 -5 -12 6 -5 8 4 20 9 27 10 8 2
22 10 31 18 10 9 20 14 23 11 5 -5 58 58 61 72 0 4 8 16 17 26 14 15 23 58 21
105 -2 50 -5 61 -13 56 -6 -4 -7 2 -3 15 4 14 2 21 -6 21 -7 0 -10 3 -6 6 10
11 -76 92 -114 108 -20 8 -39 13 -42 10 -3 -3 -12 -2 -19 2 -16 11 -98 12 -91
2z"/>
<path d="M3936 6623 c-4 -5 -12 -9 -17 -9 -5 -1 -11 -3 -14 -4 -3 -1 -9 -3
-14 -4 -12 -1 -74 -66 -64 -66 5 0 2 -4 -4 -8 -7 -5 -14 -20 -15 -35 -1 -15
-5 -27 -8 -27 -10 0 -3 -91 8 -102 7 -7 12 -17 12 -22 0 -16 56 -76 64 -69 3
3 6 1 6 -6 0 -7 5 -9 10 -6 6 3 10 1 10 -5 0 -6 5 -8 10 -5 6 3 10 0 10 -7 0
-9 3 -9 10 2 5 8 10 10 10 4 0 -14 32 -13 42 1 5 6 8 4 8 -5 0 -13 1 -13 10 0
5 8 13 15 17 16 14 1 58 23 49 23 -5 1 1 9 12 20 12 10 22 23 22 30 0 6 4 11
9 11 5 0 8 11 7 25 -2 13 1 22 6 19 6 -4 9 10 7 33 -2 21 1 45 6 52 5 9 4 12
-3 7 -6 -3 -15 8 -22 29 -13 41 -66 95 -92 95 -10 0 -18 4 -18 8 0 10 -64 15
-74 5z"/>
<path d="M252 6549 c2 -8 -9 -14 -26 -15 -16 -2 -32 -7 -35 -12 -3 -5 -14 -8
-24 -6 -9 1 -15 -2 -12 -6 3 -5 -4 -11 -15 -15 -11 -3 -20 -10 -20 -15 0 -5
-9 -12 -20 -15 -11 -4 -18 -10 -15 -15 3 -5 -4 -14 -15 -20 -11 -6 -20 -17
-20 -25 0 -8 -4 -15 -10 -15 -5 0 -10 -9 -10 -19 0 -11 -6 -26 -13 -33 -19
-19 -16 -196 4 -209 8 -5 10 -9 5 -9 -5 0 -1 -10 10 -22 10 -12 13 -18 7 -14
-7 4 -13 3 -13 -3 0 -5 9 -13 20 -16 11 -3 20 -12 20 -18 0 -7 14 -23 31 -37
17 -14 39 -33 50 -42 13 -12 19 -14 19 -5 0 7 3 8 8 2 4 -5 17 -16 30 -23 19
-10 27 -11 38 -1 12 10 15 10 12 -1 -2 -11 11 -15 55 -15 31 -1 57 3 57 7 0 5
4 7 9 3 5 -3 12 -1 16 4 3 6 12 8 20 4 8 -3 15 0 15 7 0 6 4 9 9 5 6 -3 22 7
36 22 20 22 24 24 19 8 -4 -11 8 -1 27 23 18 23 37 42 41 42 4 0 8 7 8 15 0 7
7 18 16 23 9 5 15 11 14 13 -2 5 10 59 18 79 7 19 9 110 2 110 -3 0 -7 12 -8
28 -1 15 -7 29 -12 30 -6 2 -10 12 -10 23 0 10 -5 19 -11 19 -5 0 -8 4 -4 9 3
5 -5 17 -17 25 -12 9 -19 16 -15 16 5 0 2 7 -7 15 -8 8 -19 15 -25 15 -6 0
-11 5 -11 10 0 6 -7 10 -16 10 -8 0 -12 5 -9 10 3 6 -3 10 -14 10 -12 0 -21 5
-21 11 0 6 -7 9 -15 5 -8 -3 -15 0 -15 5 0 6 -9 9 -20 6 -11 -3 -20 -2 -20 3
0 4 -22 8 -48 7 -27 0 -54 3 -61 7 -7 4 -10 2 -9 -5z"/>
<path d="M4390 6492 c-14 -2 -31 -9 -39 -15 -12 -10 -13 -9 -7 1 7 11 4 12
-12 3 -12 -6 -24 -16 -27 -21 -4 -6 -10 -8 -14 -5 -5 2 -17 -7 -27 -21 -11
-14 -27 -35 -37 -47 -10 -11 -15 -27 -13 -34 3 -7 0 -13 -6 -13 -6 0 -9 -3 -5
-6 3 -3 1 -17 -4 -31 -5 -14 -6 -30 -2 -36 4 -6 8 -18 9 -27 4 -41 10 -52 62
-106 18 -18 39 -34 47 -34 7 0 16 -4 20 -10 3 -5 13 -6 22 -3 9 4 14 2 10 -3
-7 -11 63 -12 81 -1 6 5 16 6 21 3 5 -3 14 1 21 9 7 8 16 13 20 10 5 -3 16 5
24 17 9 12 16 19 16 14 0 -19 52 70 54 91 0 13 4 23 8 23 10 0 -1 91 -12 105
-5 7 -8 14 -5 17 3 2 -13 25 -35 49 -22 24 -40 40 -40 36 0 -5 -7 -1 -16 7 -8
9 -20 14 -25 11 -5 -4 -9 -2 -9 3 0 11 -44 19 -80 14z"/>
<path d="M2457 6154 c-4 -4 -19 -8 -34 -10 -66 -7 -82 -10 -97 -23 -9 -8 -19
-11 -22 -8 -4 3 -12 1 -19 -6 -7 -7 -31 -28 -55 -47 -37 -31 -72 -79 -70 -96
1 -3 -7 -12 -17 -21 -10 -8 -11 -11 -3 -7 12 6 13 4 3 -7 -7 -7 -13 -22 -13
-34 0 -12 -5 -26 -12 -33 -9 -9 -9 -12 1 -12 7 0 9 -5 4 -12 -13 -21 -10 -52
6 -72 15 -18 15 -19 -4 -13 -17 6 -18 5 -4 -5 9 -7 14 -18 12 -25 -2 -6 1 -14
6 -18 6 -3 11 -14 11 -24 0 -10 15 -34 33 -52 17 -18 23 -27 12 -20 -11 8 -6
1 12 -15 62 -57 103 -84 128 -84 8 0 15 -4 15 -8 0 -4 9 -8 20 -9 13 -1 18 3
14 10 -3 7 0 5 8 -3 16 -20 111 -18 135 1 12 10 15 10 9 1 -6 -10 -2 -10 21 0
15 7 31 17 34 22 4 5 12 5 18 2 6 -4 11 -2 11 4 0 6 11 16 25 22 13 6 27 19
30 29 4 10 10 18 15 16 4 -1 8 2 8 6 1 5 9 15 19 22 10 7 19 18 19 24 1 6 2
16 3 22 0 5 7 7 14 3 6 -4 9 -4 5 1 -4 4 -2 15 5 23 10 13 9 14 -3 7 -12 -7
-13 -6 -3 6 6 8 14 28 17 44 2 17 5 30 6 30 1 0 3 15 4 33 1 17 0 32 -4 32 -5
0 -11 30 -13 73 -1 9 -5 17 -9 17 -4 0 -8 7 -8 16 0 8 -4 12 -10 9 -5 -3 -7 0
-4 8 3 8 0 18 -5 22 -6 3 -8 11 -5 17 4 6 2 8 -3 5 -12 -8 -36 17 -26 26 3 4
1 7 -5 7 -11 0 -36 18 -68 48 -8 7 -23 14 -34 15 -11 1 -20 5 -20 9 0 4 -9 8
-19 8 -11 0 -22 4 -25 8 -3 5 -15 8 -28 7 -13 -1 -26 2 -29 7 -3 4 -8 5 -12 2z"/>
<path d="M4012 6089 c-9 -3 -27 -4 -39 -3 -13 1 -23 -3 -23 -8 0 -5 -4 -7 -9
-3 -5 3 -13 0 -16 -6 -4 -5 -13 -8 -20 -5 -7 2 -16 -2 -19 -11 -4 -9 -9 -13
-12 -10 -4 3 -15 -3 -27 -14 -11 -10 -27 -19 -34 -19 -12 0 -17 -12 -14 -32 0
-4 -7 -4 -16 -1 -9 4 -14 2 -10 -4 3 -5 -3 -17 -14 -26 -11 -10 -17 -23 -13
-29 4 -6 3 -8 -3 -5 -10 6 -32 -37 -29 -55 1 -4 -8 -14 -19 -23 -11 -9 -15
-14 -9 -11 7 3 14 -1 17 -9 4 -9 1 -12 -7 -9 -9 4 -12 -16 -11 -83 2 -89 23
-166 51 -189 8 -6 12 -13 9 -16 -3 -2 18 -29 45 -58 28 -30 50 -50 50 -45 0 6
7 1 15 -9 8 -11 15 -16 15 -12 0 5 7 3 15 -4 8 -7 15 -9 15 -4 0 4 7 -1 15
-12 8 -11 14 -14 15 -6 0 9 7 8 25 -4 20 -13 25 -13 25 -3 0 12 2 12 9 0 5 -7
13 -11 19 -7 6 3 14 2 17 -4 5 -8 11 -7 21 1 8 6 14 8 14 3 0 -11 57 -10 68 1
4 5 0 5 -8 0 -8 -5 -12 -4 -7 0 4 5 21 9 38 10 17 1 34 7 38 14 5 7 10 12 12
10 2 -1 15 1 29 5 14 5 29 8 33 7 5 -1 6 3 2 8 -5 9 33 37 46 34 3 -1 13 14
24 33 10 19 22 34 27 34 4 0 8 5 8 11 0 6 10 25 22 42 12 17 17 27 11 24 -7
-4 -5 6 3 23 15 29 25 147 16 182 -2 10 -9 15 -16 11 -6 -4 -5 0 2 9 9 11 10
18 2 23 -6 3 -8 11 -5 16 4 5 1 9 -4 9 -6 0 -11 9 -11 19 0 11 -10 27 -22 35
-12 9 -17 16 -10 16 7 0 -2 14 -20 32 -18 18 -33 37 -33 43 0 5 -5 10 -12 10
-7 0 -21 8 -33 17 -11 10 -20 14 -20 10 0 -4 -6 0 -13 8 -11 13 -26 19 -64 22
-7 1 -13 5 -13 10 0 5 -4 7 -9 3 -5 -3 -13 -1 -16 5 -5 8 -11 7 -21 -1 -8 -6
-14 -7 -14 -2 0 10 -51 11 -78 2z"/>
<path d="M1348 6067 c-42 -9 -89 -18 -105 -19 -7 -1 -13 -5 -13 -10 0 -6 -6
-8 -12 -6 -7 3 -19 -1 -26 -9 -8 -7 -18 -11 -23 -8 -5 4 -9 1 -9 -4 0 -6 -7
-11 -15 -11 -8 0 -15 -4 -15 -10 0 -5 -7 -10 -15 -10 -8 0 -15 -4 -15 -10 0
-5 -7 -10 -16 -10 -9 0 -12 -5 -8 -12 5 -8 2 -9 -10 -5 -9 4 -15 3 -12 -1 3
-5 -6 -16 -19 -26 -14 -10 -22 -22 -19 -27 3 -5 -2 -9 -11 -9 -9 0 -13 -4 -10
-10 3 -5 1 -10 -5 -10 -5 0 -18 -16 -27 -35 -9 -19 -20 -35 -25 -35 -4 0 -8
-8 -8 -18 0 -10 -5 -23 -12 -30 -7 -7 -8 -12 -4 -12 5 0 4 -6 -2 -13 -12 -14
-25 -70 -24 -100 0 -9 -2 -16 -6 -13 -4 2 -7 -22 -7 -55 0 -32 2 -59 6 -59 3
0 7 -17 8 -37 1 -21 3 -44 3 -50 1 -7 5 -13 10 -13 4 0 8 -8 8 -17 0 -20 41
-106 53 -111 4 -2 7 -10 7 -18 0 -8 4 -14 8 -14 5 0 14 -12 20 -26 7 -14 17
-22 22 -19 6 3 10 2 10 -3 0 -5 11 -21 25 -36 14 -15 25 -24 25 -21 0 4 7 0
15 -7 33 -30 45 -38 45 -32 0 3 9 -4 21 -17 11 -13 18 -18 14 -11 -9 17 10 15
29 -3 8 -9 19 -15 23 -14 4 1 21 -3 37 -10 16 -6 36 -9 44 -6 9 3 18 1 22 -5
8 -13 140 -19 140 -7 0 5 6 7 14 4 8 -3 17 -3 20 1 6 5 20 8 64 14 6 1 12 5
12 10 0 4 3 7 8 7 22 -4 42 2 37 10 -3 6 3 8 14 6 11 -2 22 3 25 11 3 8 10 14
15 14 16 0 81 47 74 54 -4 3 1 6 11 6 9 0 21 11 28 25 6 13 15 22 19 19 5 -3
9 -1 9 4 0 5 11 22 24 37 14 16 23 32 20 37 -3 4 1 11 9 14 7 2 14 10 14 17 1
7 10 36 22 66 11 30 18 58 15 62 -3 5 1 9 8 9 9 0 9 3 -2 10 -11 7 -11 10 -2
10 7 0 11 4 8 9 -4 5 0 12 6 14 10 4 10 6 1 6 -9 1 -10 8 -3 25 7 19 7 61 0
61 -1 0 -3 16 -6 35 -7 56 -9 64 -17 77 -4 6 -8 23 -9 36 -1 14 -6 23 -10 21
-4 -3 -8 2 -8 10 0 21 -38 82 -76 124 -18 20 -31 40 -28 44 3 4 -1 8 -9 8 -8
0 -28 14 -46 30 -17 17 -31 27 -31 24 0 -4 -8 0 -17 9 -10 8 -25 17 -33 19 -8
2 -17 6 -20 10 -3 3 -14 8 -25 10 -11 1 -23 6 -26 11 -3 4 -20 9 -37 10 -18 1
-32 5 -32 9 0 3 -10 4 -22 0 -11 -3 -19 -1 -16 4 7 11 -78 12 -124 1z"/>
<path d="M3212 5878 c-5 -5 -19 -10 -31 -11 -11 -1 -21 -7 -21 -15 0 -7 -4
-10 -10 -7 -5 3 -10 1 -10 -5 0 -6 -4 -8 -10 -5 -5 3 -10 0 -10 -8 0 -8 -7
-18 -16 -21 -9 -3 -14 -13 -11 -20 3 -8 1 -16 -4 -18 -14 -5 -21 -108 -8 -108
6 0 8 -4 5 -8 -8 -14 24 -69 49 -82 13 -7 21 -18 18 -24 -3 -6 -3 -8 2 -4 4 4
14 3 21 -3 16 -13 114 -20 114 -8 0 6 5 7 10 4 6 -4 17 -1 25 5 8 7 15 9 15 6
0 -10 33 24 62 64 14 19 23 41 20 49 -2 8 0 11 5 8 9 -5 9 12 0 76 -2 16 -11
37 -20 48 -10 11 -17 23 -17 28 0 5 -13 15 -29 22 -16 7 -27 17 -25 21 3 4 -4
8 -15 8 -10 0 -22 6 -24 13 -4 9 -6 9 -6 -1 -1 -7 -6 -10 -12 -7 -17 11 -57
13 -67 3z"/>
<path d="M359 5786 c-2 -3 -16 -6 -29 -8 -14 -2 -35 -9 -47 -16 -13 -7 -23 -9
-23 -5 0 4 -5 0 -11 -10 -6 -9 -14 -15 -20 -12 -5 4 -9 2 -9 -2 0 -5 -13 -23
-29 -41 -17 -17 -27 -32 -24 -32 3 0 0 -7 -7 -15 -7 -9 -14 -25 -15 -38 -4
-37 -5 -38 -17 -31 -7 4 -8 3 -4 -4 3 -6 7 -27 8 -47 1 -19 5 -35 10 -35 5 0
7 -4 4 -8 -3 -5 1 -20 9 -35 8 -15 12 -27 9 -27 -2 0 16 -19 41 -42 57 -55 79
-74 82 -70 2 1 4 2 6 1 37 -11 127 -18 127 -10 0 4 12 8 26 9 67 5 184 132
158 173 -4 7 -3 10 3 6 6 -4 14 0 17 9 4 10 2 13 -7 8 -9 -6 -9 -4 -1 7 16 19
11 75 -6 71 -10 -2 -11 0 -3 10 11 14 -18 94 -30 81 -4 -3 -7 0 -7 7 0 27 -84
90 -120 90 -11 0 -20 3 -20 8 0 7 -64 15 -71 8z"/>
<path d="M2795 5391 c-34 -16 -82 -51 -70 -51 5 0 -2 -8 -13 -19 -12 -10 -22
-26 -22 -35 0 -9 -4 -16 -8 -16 -4 0 -8 -29 -8 -65 -1 -35 3 -62 7 -59 5 3 9
-7 9 -21 0 -14 4 -24 8 -21 4 2 14 -9 21 -24 7 -16 16 -29 19 -28 4 2 19 -6
34 -16 15 -10 31 -15 37 -12 5 3 11 2 13 -3 3 -10 27 -14 76 -12 18 0 31 5 28
10 -3 4 6 7 19 5 14 -1 23 2 19 7 -3 5 0 9 6 9 16 0 81 66 73 74 -3 3 0 6 7 6
7 0 10 3 7 7 -4 3 -1 13 6 21 10 13 9 14 -3 7 -13 -8 -13 -7 -1 8 7 9 10 17 5
17 -4 0 -3 5 4 12 6 6 8 17 3 27 -5 9 -7 24 -6 34 2 9 -1 17 -6 17 -5 0 -9 7
-9 14 0 8 -20 36 -45 63 -25 26 -45 44 -45 39 0 -5 -11 -1 -24 7 -17 12 -26
13 -35 4 -7 -7 -11 -7 -11 -1 0 15 -60 12 -95 -5z"/>
<path d="M3322 5308 c-7 -7 -12 -8 -12 -4 0 5 -8 2 -17 -5 -13 -11 -15 -11 -9
-1 4 7 -15 0 -43 -15 -28 -15 -54 -36 -57 -46 -3 -10 -8 -16 -12 -13 -7 8 -35
-32 -48 -71 -9 -24 -9 -31 0 -26 6 3 6 0 -1 -8 -7 -7 -13 -29 -13 -49 0 -20 6
-42 13 -49 10 -11 9 -12 -1 -6 -18 10 32 -86 55 -105 10 -9 21 -16 26 -18 4
-1 17 -11 29 -22 19 -17 45 -25 71 -21 4 0 7 -3 7 -7 0 -11 51 -9 69 2 10 6
12 6 6 -3 -5 -9 -2 -10 11 -3 11 5 33 16 49 23 30 14 102 69 89 69 -4 0 3 11
16 25 13 14 20 25 16 25 -5 0 -3 7 4 15 7 8 9 15 5 15 -4 0 -1 8 6 17 12 14
12 15 1 9 -11 -7 -12 -4 -3 11 11 21 11 63 0 63 -4 0 -10 7 -13 16 -3 8 -2 12
4 9 29 -18 -14 59 -57 101 -17 18 -29 35 -26 38 3 3 -4 4 -16 1 -11 -2 -21 0
-21 4 0 12 -41 26 -75 26 -16 0 -33 3 -36 7 -3 5 -10 3 -17 -4z"/>
<path d="M2390 5288 c0 -4 -9 -5 -20 -3 -11 2 -22 -1 -25 -6 -4 -5 -11 -7 -16
-4 -5 4 -9 1 -9 -5 0 -6 -4 -9 -9 -5 -5 3 -16 -2 -24 -10 -9 -8 -21 -15 -28
-15 -7 0 -9 -3 -6 -6 3 -4 -5 -15 -18 -26 -14 -11 -23 -23 -20 -28 3 -4 -2
-11 -10 -14 -8 -3 -15 -9 -14 -13 1 -4 0 -11 -1 -15 -1 -5 -4 -12 -5 -18 -1
-5 -3 -11 -4 -12 -8 -10 -7 -78 1 -78 6 0 5 -6 -2 -15 -12 -14 -7 -20 14 -16
5 1 4 -5 -4 -13 -8 -11 -9 -16 -1 -16 6 0 10 -3 9 -7 -1 -5 6 -21 17 -38 33
-49 98 -95 136 -95 11 0 19 -4 19 -9 0 -9 51 -7 68 3 6 3 13 0 15 -6 4 -10 6
-10 6 0 1 7 6 10 11 7 6 -3 10 -2 10 4 0 6 7 8 15 5 8 -4 17 1 21 10 3 9 9 14
14 11 10 -6 70 45 70 61 0 8 4 14 9 14 9 0 15 14 29 60 9 30 10 120 1 120 -5
0 -8 3 -8 8 5 27 -2 52 -13 46 -8 -5 -9 -2 -5 9 4 12 1 17 -10 17 -9 0 -13 3
-10 6 7 7 -42 54 -56 54 -5 0 -6 4 -3 8 2 4 -4 9 -15 10 -42 4 -49 6 -49 13 0
4 -18 9 -40 11 -22 2 -40 0 -40 -4z"/>
<path d="M730 5187 c0 -5 -3 -7 -7 -4 -3 4 -12 2 -20 -4 -7 -6 -13 -8 -13 -3
0 4 -13 -8 -30 -26 -16 -18 -30 -40 -30 -47 0 -7 -5 -13 -11 -13 -7 0 -10 -15
-7 -40 2 -22 -1 -40 -6 -40 -5 0 -1 -7 10 -16 10 -8 13 -13 7 -9 -7 3 -13 1
-13 -4 0 -6 5 -11 10 -11 6 0 10 -5 10 -12 0 -6 14 -24 32 -40 29 -26 42 -32
61 -29 4 0 7 -3 7 -7 0 -5 20 -8 45 -8 25 1 45 4 45 8 0 7 28 18 44 17 10 -1
51 62 48 74 -1 4 2 7 6 7 5 0 10 25 11 55 1 33 -2 55 -8 55 -6 0 -11 7 -11 15
0 18 -42 63 -62 67 -7 2 -16 6 -19 11 -9 12 -99 17 -99 4z"/>
<path d="M3828 5173 c-10 -3 -18 -8 -18 -13 0 -5 -9 -11 -19 -15 -10 -3 -24
-19 -31 -35 -7 -16 -16 -27 -21 -24 -5 3 -5 -6 0 -19 6 -16 6 -28 -2 -36 -8
-8 -8 -11 1 -11 7 0 12 -12 12 -26 0 -14 4 -23 10 -19 6 3 10 1 10 -5 0 -14
25 -40 39 -40 6 0 11 -4 11 -9 0 -13 103 -7 108 7 2 7 8 10 13 6 5 -3 12 2 15
10 3 9 10 13 15 10 5 -3 12 8 15 25 4 17 10 31 14 31 10 0 5 60 -7 90 -22 51
-103 87 -165 73z"/>
<path d="M286 5015 c-48 -14 -104 -65 -98 -87 2 -10 -1 -18 -7 -18 -13 0 -15
-86 -2 -95 6 -3 8 -14 6 -25 -2 -12 0 -18 4 -15 5 2 17 -7 27 -20 10 -14 24
-25 31 -25 6 0 13 -5 15 -11 4 -13 106 -21 114 -8 3 5 9 7 14 4 10 -6 95 74
87 82 -3 2 1 20 9 38 9 22 10 36 4 40 -6 4 -8 11 -4 16 3 5 0 16 -6 24 -6 8
-9 19 -5 25 3 5 -1 10 -10 10 -9 0 -14 4 -11 8 7 11 -48 52 -69 52 -8 0 -15 3
-15 8 0 10 -46 9 -84 -3z"/>
<path d="M2950 4911 c0 -5 -8 -8 -17 -7 -21 3 -55 -22 -93 -70 -22 -27 -17
-119 7 -146 35 -39 74 -60 118 -63 25 -1 42 2 39 6 -3 5 4 9 15 9 12 0 21 5
21 10 0 6 6 10 14 10 7 0 22 17 32 38 19 38 27 112 13 112 -5 0 -9 8 -9 18 0
30 -42 60 -122 86 -10 3 -18 1 -18 -3z"/>
<path d="M1850 4720 c-8 -5 -18 -6 -22 -4 -4 3 -8 0 -8 -7 0 -6 -8 -9 -19 -6
-12 3 -22 -1 -25 -9 -3 -8 -12 -14 -21 -14 -8 0 -15 -7 -15 -15 0 -8 -7 -15
-17 -15 -9 0 -14 -3 -10 -6 3 -3 -3 -16 -14 -27 -14 -16 -16 -23 -7 -29 10 -6
10 -8 0 -8 -7 0 -10 -4 -7 -10 3 -5 3 -10 -2 -10 -4 0 -8 -13 -8 -30 -1 -16 2
-30 5 -30 3 0 6 -9 7 -21 1 -11 10 -33 20 -47 9 -15 16 -31 14 -37 -1 -5 1 -7
4 -3 4 4 22 -4 39 -17 18 -14 41 -26 52 -28 10 -1 25 -6 32 -10 6 -5 12 -4 12
2 0 10 18 10 36 -2 7 -4 14 0 18 8 3 8 11 12 19 9 7 -2 26 7 41 21 15 14 32
25 38 25 6 0 8 3 5 7 -4 3 0 14 9 24 8 9 17 26 19 36 2 10 4 18 5 18 2 0 4 18
5 40 3 41 -29 125 -47 125 -5 0 -6 5 -3 10 3 6 -1 10 -9 10 -9 0 -16 5 -16 10
0 6 -7 10 -15 10 -8 0 -15 4 -15 8 0 4 -12 9 -27 10 -15 1 -30 8 -35 15 -6 9
-8 8 -8 -3 0 -11 -2 -12 -8 -3 -5 8 -13 9 -22 3z"/>
<path d="M1054 4691 c-9 -9 -14 -10 -10 -3 4 6 2 12 -3 12 -6 0 -11 -4 -11 -9
0 -6 -9 -8 -20 -6 -11 2 -22 -1 -25 -6 -4 -5 -11 -7 -16 -4 -5 4 -9 1 -9 -4 0
-6 -5 -10 -10 -8 -15 3 -110 -66 -110 -81 0 -7 -4 -10 -10 -7 -5 3 -10 0 -10
-8 0 -7 -9 -23 -20 -35 -11 -12 -20 -28 -20 -37 0 -8 -5 -15 -11 -15 -5 0 -8
-4 -5 -8 3 -5 -1 -21 -9 -36 -8 -14 -10 -24 -5 -21 6 4 10 1 10 -4 0 -6 -4
-11 -9 -11 -12 0 -10 -82 2 -97 6 -9 6 -13 -2 -13 -9 0 -8 -6 1 -22 6 -13 13
-27 14 -33 11 -53 107 -175 145 -183 8 -2 16 -8 17 -13 2 -5 8 -7 13 -3 5 3 9
0 9 -5 0 -6 3 -10 8 -9 4 0 15 -2 25 -7 10 -4 21 -5 24 -1 4 3 15 -1 25 -11
12 -10 18 -12 18 -4 0 7 5 9 13 4 16 -10 77 -10 77 0 0 5 5 5 10 2 6 -3 10 0
10 7 0 9 3 9 10 -2 5 -8 10 -10 10 -4 0 6 7 11 15 12 8 1 22 3 30 4 8 1 15 5
15 10 0 5 5 6 10 3 6 -3 10 -2 10 3 0 5 12 15 27 23 39 20 63 41 57 51 -3 4 2
8 10 8 9 0 16 6 16 14 0 8 7 17 16 20 8 3 13 10 9 15 -3 5 -1 12 5 16 6 4 8
10 5 15 -3 4 2 10 10 14 8 3 12 12 9 21 -3 8 -1 15 6 15 6 0 8 4 5 10 -3 5 -1
19 6 31 9 17 8 20 -3 13 -10 -6 -11 -5 -2 7 13 16 13 67 1 87 -5 7 -3 12 5 12
8 1 7 4 -4 10 -10 6 -14 18 -11 30 3 12 0 20 -6 20 -7 0 -10 4 -7 9 3 5 -1 14
-10 21 -8 7 -13 19 -10 27 3 8 1 11 -4 8 -5 -3 -12 6 -16 20 -3 13 -10 23 -14
20 -5 -3 -11 4 -15 15 -3 11 -13 20 -20 20 -8 0 -19 9 -25 20 -6 11 -20 20
-30 20 -11 0 -20 5 -20 12 0 6 -3 9 -6 6 -3 -4 -17 0 -31 7 -14 7 -34 12 -44
10 -12 -3 -19 2 -20 13 0 9 -3 12 -5 6 -3 -8 -16 -9 -39 -4 -25 6 -38 3 -51
-9z"/>
<path d="M2457 4677 c-1 -5 -12 -10 -22 -11 -38 -4 -75 -18 -75 -29 0 -6 -3
-8 -6 -4 -3 3 -11 2 -18 -3 -41 -33 -66 -59 -66 -68 0 -5 -7 -12 -15 -16 -8
-3 -15 -12 -15 -21 0 -8 -5 -15 -11 -15 -6 0 -9 -6 -6 -14 3 -8 2 -16 -4 -18
-5 -2 -10 -18 -12 -36 -1 -17 -5 -32 -8 -32 -3 0 -6 -18 -7 -40 -1 -24 3 -40
9 -40 7 0 7 -6 -2 -17 -10 -11 -10 -14 -1 -9 8 5 12 -2 12 -23 0 -17 5 -31 11
-31 5 0 7 -4 4 -10 -3 -5 -1 -10 5 -10 6 0 9 -4 6 -9 -3 -5 8 -23 24 -41 17
-18 30 -36 30 -41 0 -5 7 -9 15 -9 8 0 15 -4 15 -10 0 -5 7 -10 15 -10 8 0 15
-4 15 -10 0 -5 7 -10 15 -10 8 0 15 -4 15 -8 0 -4 8 -8 18 -9 24 -2 45 -7 57
-15 12 -8 90 -4 126 6 46 13 105 47 142 81 21 19 35 35 32 35 -4 0 0 7 7 15
29 32 38 45 38 52 1 27 14 82 19 79 3 -2 6 9 6 25 0 16 -2 29 -5 29 -3 0 -6
12 -7 28 -3 50 -7 72 -14 72 -4 0 -13 16 -19 35 -6 19 -20 41 -31 48 -10 8
-16 17 -12 20 3 4 0 7 -7 7 -7 0 -20 8 -29 18 -9 10 -31 25 -48 33 -18 7 -33
16 -33 19 0 3 -8 6 -17 7 -28 2 -88 11 -88 13 0 7 -55 4 -58 -3z"/>
<path d="M3162 4562 c-6 -2 -10 -8 -7 -12 3 -5 -4 -7 -15 -5 -11 2 -20 0 -20
-6 0 -5 -7 -9 -15 -9 -8 0 -15 -4 -15 -8 0 -5 -9 -18 -21 -30 -11 -12 -18 -26
-15 -31 3 -5 -1 -12 -10 -15 -13 -5 -14 -9 -4 -21 7 -9 8 -15 2 -15 -5 0 -9
-16 -9 -35 1 -19 5 -35 9 -35 4 0 8 -8 8 -19 0 -25 57 -84 96 -100 41 -16 86
-20 102 -8 6 5 12 7 12 3 0 -10 58 22 81 45 10 10 19 24 19 30 0 5 5 7 12 3 8
-5 9 -2 5 9 -3 10 -3 17 2 17 16 0 16 121 -1 132 -7 4 -9 8 -5 8 18 0 -47 70
-81 86 -35 17 -103 25 -130 16z"/>
<path d="M1735 4120 c-4 -6 -11 -8 -16 -5 -5 4 -9 2 -9 -4 0 -6 -7 -8 -15 -5
-8 4 -15 1 -15 -6 0 -6 -4 -9 -9 -6 -4 3 -23 -6 -41 -19 -18 -13 -37 -22 -41
-19 -5 3 -9 -2 -9 -11 0 -9 -3 -14 -7 -12 -10 6 -64 -49 -56 -57 4 -3 1 -6 -5
-6 -7 0 -12 -7 -12 -16 0 -8 -5 -12 -10 -9 -6 4 -13 -7 -16 -24 -4 -18 -11
-28 -17 -24 -6 3 -7 1 -3 -6 4 -6 4 -17 -2 -24 -5 -7 -8 -24 -7 -39 1 -16 -2
-25 -8 -21 -6 4 -8 0 -4 -10 3 -10 3 -17 -1 -17 -12 0 -1 -74 12 -82 7 -5 7
-8 -3 -8 -10 0 -11 -3 -2 -14 9 -11 9 -15 -1 -19 -10 -4 -10 -6 0 -6 6 -1 12
-10 12 -20 0 -11 5 -23 11 -26 6 -4 8 -13 5 -21 -3 -8 -2 -13 2 -13 19 3 25
-2 12 -11 -13 -8 -12 -10 3 -10 10 0 15 -4 12 -10 -3 -5 -1 -10 5 -10 6 0 8
-5 5 -10 -4 -6 -1 -9 6 -8 7 2 16 -8 20 -22 4 -14 7 -19 8 -11 1 8 13 0 30
-18 15 -16 31 -27 35 -24 3 3 6 0 6 -7 0 -7 3 -10 6 -7 4 4 15 -3 25 -15 13
-14 19 -16 19 -7 0 12 2 12 9 0 5 -8 22 -15 38 -16 15 -1 35 -5 43 -8 8 -3 36
-8 63 -10 38 -3 47 -1 47 12 0 13 2 13 9 2 5 -8 11 -9 15 -3 3 5 17 7 31 5 17
-4 27 0 31 11 3 9 12 16 18 16 18 0 66 24 66 33 0 4 7 7 16 7 8 0 13 4 9 9 -3
5 3 12 14 16 11 3 25 13 33 23 11 15 11 16 -2 7 -9 -5 -7 -2 3 8 11 9 16 17
13 17 -4 0 -1 6 6 14 7 8 16 12 20 10 4 -3 5 5 3 16 -2 11 1 20 6 20 6 0 7 5
4 10 -3 6 -1 10 5 10 6 0 8 5 5 10 -3 6 -2 10 4 10 6 0 9 12 8 28 -1 18 2 26
11 24 8 -1 11 2 7 8 -3 5 -7 43 -9 85 -2 55 -7 80 -21 95 -10 11 -15 20 -10
20 4 0 2 7 -5 15 -7 9 -10 18 -7 21 2 3 -6 17 -19 31 -13 14 -24 33 -24 42 0
14 -2 14 -10 1 -8 -12 -10 -11 -10 7 0 16 -4 21 -15 17 -10 -4 -15 0 -15 12 0
9 -3 15 -6 12 -3 -4 -14 2 -25 13 -11 11 -24 17 -29 14 -4 -3 -10 0 -12 6 -2
6 -17 13 -32 14 -16 2 -33 8 -39 14 -7 7 -15 7 -24 -1 -10 -8 -12 -7 -8 4 5
12 -5 15 -52 14 -32 -1 -64 -5 -72 -10 -10 -6 -12 -5 -7 2 4 7 5 12 2 12 -3 0
-8 -5 -11 -10z"/>
<path d="M2580 3758 c0 -4 -7 -5 -16 -1 -9 3 -20 0 -25 -8 -7 -12 -9 -12 -9 0
0 11 -4 9 -14 -5 -8 -10 -18 -16 -22 -12 -4 5 -14 -1 -21 -12 -8 -11 -19 -17
-25 -14 -8 5 -9 1 -5 -10 4 -9 3 -15 -2 -11 -11 6 -53 -49 -44 -59 3 -3 1 -6
-6 -6 -7 0 -9 -4 -6 -10 3 -5 2 -10 -4 -10 -5 0 -8 -9 -6 -20 2 -11 1 -20 -3
-20 -4 0 -7 -20 -7 -45 0 -25 4 -45 8 -45 4 0 7 -6 6 -12 -2 -19 12 -58 21
-58 4 0 11 -11 14 -25 4 -14 13 -25 22 -25 8 0 12 -4 9 -10 -3 -5 1 -10 9 -10
9 0 16 -4 16 -10 0 -5 7 -10 15 -10 8 0 15 -4 15 -10 0 -5 8 -10 18 -10 10 0
24 -6 31 -12 11 -10 13 -10 7 0 -4 6 -2 12 3 12 6 0 11 -5 11 -10 0 -7 19 -10
45 -9 25 2 45 8 45 13 0 6 5 4 10 -4 7 -11 10 -11 10 -2 0 7 5 10 10 7 6 -3
10 -1 10 5 0 6 5 8 10 5 6 -3 10 -1 10 5 0 6 4 9 9 5 5 -3 17 5 25 17 9 12 16
19 16 14 0 -5 11 3 25 18 14 15 25 34 25 42 0 7 6 14 13 14 6 0 13 10 14 23 1
12 4 48 7 80 4 52 3 58 -12 53 -13 -5 -13 -3 2 9 11 8 14 15 7 15 -7 0 -9 5
-6 10 3 6 1 10 -5 10 -6 0 -8 4 -5 10 7 11 -83 107 -105 112 -8 2 -18 7 -21
11 -3 4 -16 9 -27 10 -12 1 -22 4 -22 7 0 3 -18 6 -40 6 -22 0 -40 -3 -40 -8z"/>
<path d="M2168 3203 c-10 -2 -18 -9 -18 -14 0 -5 -5 -9 -11 -9 -19 0 -64 -53
-67 -80 -2 -14 -8 -32 -12 -39 -4 -8 -4 -25 0 -37 5 -12 6 -25 3 -28 -4 -3 -1
-6 5 -6 7 0 11 -4 9 -9 -3 -12 35 -71 46 -71 5 0 15 -7 24 -15 8 -8 19 -13 24
-10 5 4 9 2 9 -3 0 -4 23 -9 50 -9 28 -1 50 3 50 8 0 6 5 7 10 4 6 -3 10 -1
10 5 0 6 5 8 10 5 6 -3 10 -1 10 6 0 7 3 10 6 7 7 -8 44 28 44 42 0 6 5 10 11
10 6 0 9 7 5 15 -3 8 -1 15 4 15 6 0 9 3 9 8 -1 4 0 9 1 12 6 17 5 52 -2 56
-4 3 -6 10 -3 15 4 5 2 9 -4 9 -6 0 -8 7 -5 15 4 8 1 15 -6 15 -6 0 -9 4 -6 8
6 10 -63 68 -76 65 -4 -2 -8 2 -8 7 0 10 -88 12 -122 3z"/>
<path d="M2661 3017 c-5 -5 -16 -10 -25 -11 -10 -1 -22 -9 -27 -17 -5 -8 -9
-10 -9 -6 0 4 -10 -2 -22 -15 -29 -29 -70 -108 -57 -108 6 0 6 -6 0 -18 -6
-11 -6 -24 0 -35 7 -12 6 -17 -3 -17 -8 0 -6 -5 5 -11 9 -6 15 -14 12 -18 -2
-5 2 -14 10 -21 8 -7 13 -15 11 -19 -2 -3 2 -12 10 -19 8 -7 14 -11 14 -8 0 3
12 -6 27 -20 14 -13 28 -22 31 -19 3 3 12 -1 20 -8 13 -10 14 -9 8 3 -7 11 -4
11 9 -2 14 -13 24 -14 43 -7 14 5 27 7 30 4 3 -3 14 3 25 12 15 13 19 14 13 3
-4 -8 0 -6 8 4 9 11 16 16 16 12 0 -4 13 5 28 21 38 38 63 104 57 149 -5 41
-26 94 -37 94 -5 0 -8 7 -8 15 0 8 -7 15 -15 15 -9 0 -18 7 -21 15 -3 8 -21
17 -40 21 -19 3 -32 9 -30 13 6 9 -74 7 -83 -2z"/>
</g>
</svg>
